solid JSCAD
facet normal 0 0 -1
outer loop
vertex 0 0 -1.5000333333333338
vertex 2.1070500000000005 10.592450000000003 -1.5000333333333338
vertex 4.133066666666668 9.977916666666669 -1.5000333333333338
endloop
endfacet
facet normal 0 0 -1
outer loop
vertex 0 0 -1.5000333333333338
vertex 4.133066666666668 9.977916666666669 -1.5000333333333338
vertex 6.000133333333335 8.979850000000003 -1.5000333333333338
endloop
endfacet
facet normal 0 0 -1
outer loop
vertex 0 0 -1.5000333333333338
vertex 6.000133333333335 8.979850000000003 -1.5000333333333338
vertex 7.636750000000002 7.636750000000002 -1.5000333333333338
endloop
endfacet
facet normal 0 0 -1
outer loop
vertex 0 0 -1.5000333333333338
vertex 7.636750000000002 7.636750000000002 -1.5000333333333338
vertex 8.979850000000003 6.000133333333335 -1.5000333333333338
endloop
endfacet
facet normal 0 0 -1
outer loop
vertex 0 0 -1.5000333333333338
vertex 8.979850000000003 6.000133333333335 -1.5000333333333338
vertex 9.977916666666669 4.133066666666668 -1.5000333333333338
endloop
endfacet
facet normal 0 0 -1
outer loop
vertex 0 0 -1.5000333333333338
vertex 9.977916666666669 4.133066666666668 -1.5000333333333338
vertex 10.592450000000003 2.1070500000000005 -1.5000333333333338
endloop
endfacet
facet normal 0 0 -1
outer loop
vertex 0 0 -1.5000333333333338
vertex 10.592450000000003 2.1070500000000005 -1.5000333333333338
vertex 10.799983333333337 0 -1.5000333333333338
endloop
endfacet
facet normal 0 0 -1
outer loop
vertex 0 0 -1.5000333333333338
vertex 10.799983333333337 0 -1.5000333333333338
vertex 10.592450000000003 -2.1070500000000005 -1.5000333333333338
endloop
endfacet
facet normal 0 0 -1
outer loop
vertex 0 0 -1.5000333333333338
vertex 10.592450000000003 -2.1070500000000005 -1.5000333333333338
vertex 9.977916666666669 -4.133066666666668 -1.5000333333333338
endloop
endfacet
facet normal 0 0 -1
outer loop
vertex 0 0 -1.5000333333333338
vertex 9.977916666666669 -4.133066666666668 -1.5000333333333338
vertex 8.979850000000003 -6.000133333333335 -1.5000333333333338
endloop
endfacet
facet normal 0 0 -1
outer loop
vertex 0 0 -1.5000333333333338
vertex 8.979850000000003 -6.000133333333335 -1.5000333333333338
vertex 7.636750000000002 -7.636750000000002 -1.5000333333333338
endloop
endfacet
facet normal 0 0 -1
outer loop
vertex 0 0 -1.5000333333333338
vertex 7.636750000000002 -7.636750000000002 -1.5000333333333338
vertex 6.000133333333335 -8.979850000000003 -1.5000333333333338
endloop
endfacet
facet normal 0 0 -1
outer loop
vertex 0 0 -1.5000333333333338
vertex 6.000133333333335 -8.979850000000003 -1.5000333333333338
vertex 4.133066666666668 -9.977916666666669 -1.5000333333333338
endloop
endfacet
facet normal 0 0 -1
outer loop
vertex 0 0 -1.5000333333333338
vertex 4.133066666666668 -9.977916666666669 -1.5000333333333338
vertex 2.1070500000000005 -10.592450000000003 -1.5000333333333338
endloop
endfacet
facet normal 0 0 -1
outer loop
vertex 0 0 -1.5000333333333338
vertex 2.1070500000000005 -10.592450000000003 -1.5000333333333338
vertex 0 -10.799983333333337 -1.5000333333333338
endloop
endfacet
facet normal 0 0 -1
outer loop
vertex 0 0 -1.5000333333333338
vertex 0 -10.799983333333337 -1.5000333333333338
vertex -2.1070500000000005 -10.592450000000003 -1.5000333333333338
endloop
endfacet
facet normal 0 0 -1
outer loop
vertex 0 0 -1.5000333333333338
vertex -2.1070500000000005 -10.592450000000003 -1.5000333333333338
vertex -4.133066666666668 -9.977916666666669 -1.5000333333333338
endloop
endfacet
facet normal 0 0 -1
outer loop
vertex 0 0 -1.5000333333333338
vertex -4.133066666666668 -9.977916666666669 -1.5000333333333338
vertex -6.000133333333335 -8.979850000000003 -1.5000333333333338
endloop
endfacet
facet normal 0 0 -1
outer loop
vertex 0 0 -1.5000333333333338
vertex -6.000133333333335 -8.979850000000003 -1.5000333333333338
vertex -7.636750000000002 -7.636750000000002 -1.5000333333333338
endloop
endfacet
facet normal 0 0 -1
outer loop
vertex 0 0 -1.5000333333333338
vertex -7.636750000000002 -7.636750000000002 -1.5000333333333338
vertex -8.979850000000003 -6.000133333333335 -1.5000333333333338
endloop
endfacet
facet normal 0 0 -1
outer loop
vertex 0 0 -1.5000333333333338
vertex -8.979850000000003 -6.000133333333335 -1.5000333333333338
vertex -9.977916666666669 -4.133066666666668 -1.5000333333333338
endloop
endfacet
facet normal 0 0 -1
outer loop
vertex 0 0 -1.5000333333333338
vertex -9.977916666666669 -4.133066666666668 -1.5000333333333338
vertex -10.592450000000003 -2.1070500000000005 -1.5000333333333338
endloop
endfacet
facet normal 0 0 -1
outer loop
vertex 0 0 -1.5000333333333338
vertex -10.592450000000003 -2.1070500000000005 -1.5000333333333338
vertex -10.799983333333337 0 -1.5000333333333338
endloop
endfacet
facet normal 0 0 -1
outer loop
vertex 0 0 -1.5000333333333338
vertex -10.799983333333337 0 -1.5000333333333338
vertex -10.592450000000003 2.1070500000000005 -1.5000333333333338
endloop
endfacet
facet normal 0 0 -1
outer loop
vertex 0 0 -1.5000333333333338
vertex -10.592450000000003 2.1070500000000005 -1.5000333333333338
vertex -9.977916666666669 4.133066666666668 -1.5000333333333338
endloop
endfacet
facet normal 0 0 -1
outer loop
vertex 0 0 -1.5000333333333338
vertex -9.977916666666669 4.133066666666668 -1.5000333333333338
vertex -8.979850000000003 6.000133333333335 -1.5000333333333338
endloop
endfacet
facet normal 0 0 -1
outer loop
vertex 0 0 -1.5000333333333338
vertex -8.979850000000003 6.000133333333335 -1.5000333333333338
vertex -7.636750000000002 7.636750000000002 -1.5000333333333338
endloop
endfacet
facet normal 0 0 -1
outer loop
vertex 0 0 -1.5000333333333338
vertex -7.636750000000002 7.636750000000002 -1.5000333333333338
vertex -6.000133333333335 8.979850000000003 -1.5000333333333338
endloop
endfacet
facet normal 0 0 -1
outer loop
vertex 0 0 -1.5000333333333338
vertex -6.000133333333335 8.979850000000003 -1.5000333333333338
vertex -4.133066666666668 9.977916666666669 -1.5000333333333338
endloop
endfacet
facet normal 0 0 -1
outer loop
vertex 0 0 -1.5000333333333338
vertex -4.133066666666668 9.977916666666669 -1.5000333333333338
vertex -2.1070500000000005 10.592450000000003 -1.5000333333333338
endloop
endfacet
facet normal 0 0 -1
outer loop
vertex 0 0 -1.5000333333333338
vertex -2.1070500000000005 10.592450000000003 -1.5000333333333338
vertex 0 10.799983333333337 -1.5000333333333338
endloop
endfacet
facet normal 0 0 -1
outer loop
vertex 0 0 -1.5000333333333338
vertex 0 10.799983333333337 -1.5000333333333338
vertex 2.1070500000000005 10.592450000000003 -1.5000333333333338
endloop
endfacet
facet normal 0.9246106670517806 0.09106928348582774 -0.36986686791254936
outer loop
vertex 12.000083333333338 0 1.5000333333333338
vertex 10.799983333333337 0 -1.5000333333333338
vertex 10.592450000000003 2.1070500000000005 -1.5000333333333338
endloop
endfacet
facet normal 0.9246131766415029 0.0910856206902906 -0.3698565712331921
outer loop
vertex 12.000083333333338 0 1.5000333333333338
vertex 10.592450000000003 2.1070500000000005 -1.5000333333333338
vertex 11.769450000000004 2.3411666666666675 1.5000333333333338
endloop
endfacet
facet normal 0.8890889867908923 0.26967933071424055 -0.3698565021094854
outer loop
vertex 11.769450000000004 2.3411666666666675 1.5000333333333338
vertex 10.592450000000003 2.1070500000000005 -1.5000333333333338
vertex 9.977916666666669 4.133066666666668 -1.5000333333333338
endloop
endfacet
facet normal 0.8890863937413929 0.26973829749850875 -0.36981973355478326
outer loop
vertex 11.769450000000004 2.3411666666666675 1.5000333333333338
vertex 9.977916666666669 4.133066666666668 -1.5000333333333338
vertex 11.086533333333337 4.592133333333335 1.5000333333333338
endloop
endfacet
facet normal 0.8193813501289781 0.4380117900728746 -0.36981059316624376
outer loop
vertex 11.086533333333337 4.592133333333335 1.5000333333333338
vertex 9.977916666666669 4.133066666666668 -1.5000333333333338
vertex 8.979850000000003 6.000133333333335 -1.5000333333333338
endloop
endfacet
facet normal 0.8193917199770171 0.43796947195731906 -0.3698377358606512
outer loop
vertex 11.086533333333337 4.592133333333335 1.5000333333333338
vertex 8.979850000000003 6.000133333333335 -1.5000333333333338
vertex 9.977550000000003 6.666916666666669 1.5000333333333338
endloop
endfacet
facet normal 0.7182070051764791 0.5894012008427116 -0.36984445671201055
outer loop
vertex 9.977550000000003 6.666916666666669 1.5000333333333338
vertex 8.979850000000003 6.000133333333335 -1.5000333333333338
vertex 7.636750000000002 7.636750000000002 -1.5000333333333338
endloop
endfacet
facet normal 0.7181891794979288 0.5894393951515564 -0.3698182011413973
outer loop
vertex 9.977550000000003 6.666916666666669 1.5000333333333338
vertex 7.636750000000002 7.636750000000002 -1.5000333333333338
vertex 8.48521666666667 8.48521666666667 1.5000333333333338
endloop
endfacet
facet normal 0.5894081797602788 0.7182155092437902 -0.3698168194030089
outer loop
vertex 8.48521666666667 8.48521666666667 1.5000333333333338
vertex 7.636750000000002 7.636750000000002 -1.5000333333333338
vertex 6.000133333333335 8.979850000000003 -1.5000333333333338
endloop
endfacet
facet normal 0.5894331134529918 0.7181815257035352 -0.36984307605152594
outer loop
vertex 8.48521666666667 8.48521666666667 1.5000333333333338
vertex 6.000133333333335 8.979850000000003 -1.5000333333333338
vertex 6.666916666666669 9.977550000000003 1.5000333333333338
endloop
endfacet
facet normal 0.43800642841708537 0.8193713201689199 -0.36983916551651197
outer loop
vertex 6.666916666666669 9.977550000000003 1.5000333333333338
vertex 6.000133333333335 8.979850000000003 -1.5000333333333338
vertex 4.133066666666668 9.977916666666669 -1.5000333333333338
endloop
endfacet
facet normal 0.4379742965387396 0.819400746227296 -0.3698120234031696
outer loop
vertex 6.666916666666669 9.977550000000003 1.5000333333333338
vertex 4.133066666666668 9.977916666666669 -1.5000333333333338
vertex 4.592133333333335 11.086533333333337 1.5000333333333338
endloop
endfacet
facet normal 0.2696793307142406 0.8890889867908923 -0.3698565021094854
outer loop
vertex 4.133066666666668 9.977916666666669 -1.5000333333333338
vertex 2.1070500000000005 10.592450000000003 -1.5000333333333338
vertex 2.3411666666666675 11.769450000000004 1.5000333333333338
endloop
endfacet
facet normal 0.2697382974985087 0.8890863937413929 -0.36981973355478326
outer loop
vertex 4.133066666666668 9.977916666666669 -1.5000333333333338
vertex 2.3411666666666675 11.769450000000004 1.5000333333333338
vertex 4.592133333333335 11.086533333333337 1.5000333333333338
endloop
endfacet
facet normal 0.0910692834858278 0.9246106670517806 -0.36986686791254936
outer loop
vertex 2.1070500000000005 10.592450000000003 -1.5000333333333338
vertex 0 10.799983333333337 -1.5000333333333338
vertex 0 12.000083333333338 1.5000333333333338
endloop
endfacet
facet normal 0.09108562069029055 0.9246131766415029 -0.3698565712331921
outer loop
vertex 2.1070500000000005 10.592450000000003 -1.5000333333333338
vertex 0 12.000083333333338 1.5000333333333338
vertex 2.3411666666666675 11.769450000000004 1.5000333333333338
endloop
endfacet
facet normal -0.09106970641721591 0.9246149610009359 -0.3698560293767293
outer loop
vertex 0 10.799983333333337 -1.5000333333333338
vertex -2.1070500000000005 10.592450000000003 -1.5000333333333338
vertex -2.3411666666666675 11.769450000000004 1.5000333333333338
endloop
endfacet
facet normal -0.09108523998608341 0.9246093121003853 -0.369866325898871
outer loop
vertex 0 10.799983333333337 -1.5000333333333338
vertex -2.3411666666666675 11.769450000000004 1.5000333333333338
vertex 0 12.000083333333338 1.5000333333333338
endloop
endfacet
facet normal -0.2697382974985087 0.8890863937413929 -0.36981973355478326
outer loop
vertex -4.133066666666668 9.977916666666669 -1.5000333333333338
vertex -4.592133333333335 11.086533333333337 1.5000333333333338
vertex -2.3411666666666675 11.769450000000004 1.5000333333333338
endloop
endfacet
facet normal -0.2696793307142406 0.8890889867908923 -0.3698565021094854
outer loop
vertex -4.133066666666668 9.977916666666669 -1.5000333333333338
vertex -2.3411666666666675 11.769450000000004 1.5000333333333338
vertex -2.1070500000000005 10.592450000000003 -1.5000333333333338
endloop
endfacet
facet normal -0.4380117900728746 0.8193813501289781 -0.36981059316624376
outer loop
vertex -4.592133333333335 11.086533333333337 1.5000333333333338
vertex -4.133066666666668 9.977916666666669 -1.5000333333333338
vertex -6.000133333333335 8.979850000000003 -1.5000333333333338
endloop
endfacet
facet normal -0.43796947195731906 0.8193917199770171 -0.3698377358606512
outer loop
vertex -4.592133333333335 11.086533333333337 1.5000333333333338
vertex -6.000133333333335 8.979850000000003 -1.5000333333333338
vertex -6.666916666666669 9.977550000000003 1.5000333333333338
endloop
endfacet
facet normal -0.5894012008427116 0.7182070051764791 -0.36984445671201055
outer loop
vertex -6.666916666666669 9.977550000000003 1.5000333333333338
vertex -6.000133333333335 8.979850000000003 -1.5000333333333338
vertex -7.636750000000002 7.636750000000002 -1.5000333333333338
endloop
endfacet
facet normal -0.5894393951515564 0.7181891794979288 -0.3698182011413973
outer loop
vertex -6.666916666666669 9.977550000000003 1.5000333333333338
vertex -7.636750000000002 7.636750000000002 -1.5000333333333338
vertex -8.48521666666667 8.48521666666667 1.5000333333333338
endloop
endfacet
facet normal -0.7182155092437902 0.5894081797602788 -0.3698168194030089
outer loop
vertex -8.48521666666667 8.48521666666667 1.5000333333333338
vertex -7.636750000000002 7.636750000000002 -1.5000333333333338
vertex -8.979850000000003 6.000133333333335 -1.5000333333333338
endloop
endfacet
facet normal -0.7181815257035352 0.5894331134529918 -0.36984307605152594
outer loop
vertex -8.48521666666667 8.48521666666667 1.5000333333333338
vertex -8.979850000000003 6.000133333333335 -1.5000333333333338
vertex -9.977550000000003 6.666916666666669 1.5000333333333338
endloop
endfacet
facet normal -0.8193713201689199 0.43800642841708537 -0.36983916551651197
outer loop
vertex -9.977550000000003 6.666916666666669 1.5000333333333338
vertex -8.979850000000003 6.000133333333335 -1.5000333333333338
vertex -9.977916666666669 4.133066666666668 -1.5000333333333338
endloop
endfacet
facet normal -0.819400746227296 0.4379742965387396 -0.3698120234031696
outer loop
vertex -9.977550000000003 6.666916666666669 1.5000333333333338
vertex -9.977916666666669 4.133066666666668 -1.5000333333333338
vertex -11.086533333333337 4.592133333333335 1.5000333333333338
endloop
endfacet
facet normal -0.8890889867908923 0.2696793307142406 -0.3698565021094854
outer loop
vertex -9.977916666666669 4.133066666666668 -1.5000333333333338
vertex -10.592450000000003 2.1070500000000005 -1.5000333333333338
vertex -11.769450000000004 2.3411666666666675 1.5000333333333338
endloop
endfacet
facet normal -0.8890863937413929 0.2697382974985087 -0.36981973355478326
outer loop
vertex -9.977916666666669 4.133066666666668 -1.5000333333333338
vertex -11.769450000000004 2.3411666666666675 1.5000333333333338
vertex -11.086533333333337 4.592133333333335 1.5000333333333338
endloop
endfacet
facet normal -0.9246106670517806 0.0910692834858278 -0.36986686791254936
outer loop
vertex -10.592450000000003 2.1070500000000005 -1.5000333333333338
vertex -10.799983333333337 0 -1.5000333333333338
vertex -12.000083333333338 0 1.5000333333333338
endloop
endfacet
facet normal -0.9246131766415029 0.09108562069029055 -0.3698565712331921
outer loop
vertex -10.592450000000003 2.1070500000000005 -1.5000333333333338
vertex -12.000083333333338 0 1.5000333333333338
vertex -11.769450000000004 2.3411666666666675 1.5000333333333338
endloop
endfacet
facet normal -0.9246149610009359 -0.09106970641721591 -0.3698560293767293
outer loop
vertex -10.799983333333337 0 -1.5000333333333338
vertex -10.592450000000003 -2.1070500000000005 -1.5000333333333338
vertex -11.769450000000004 -2.3411666666666675 1.5000333333333338
endloop
endfacet
facet normal -0.9246093121003853 -0.09108523998608341 -0.369866325898871
outer loop
vertex -10.799983333333337 0 -1.5000333333333338
vertex -11.769450000000004 -2.3411666666666675 1.5000333333333338
vertex -12.000083333333338 0 1.5000333333333338
endloop
endfacet
facet normal -0.8890863937413929 -0.2697382974985087 -0.36981973355478326
outer loop
vertex -9.977916666666669 -4.133066666666668 -1.5000333333333338
vertex -11.086533333333337 -4.592133333333335 1.5000333333333338
vertex -11.769450000000004 -2.3411666666666675 1.5000333333333338
endloop
endfacet
facet normal -0.8890889867908923 -0.2696793307142406 -0.3698565021094854
outer loop
vertex -9.977916666666669 -4.133066666666668 -1.5000333333333338
vertex -11.769450000000004 -2.3411666666666675 1.5000333333333338
vertex -10.592450000000003 -2.1070500000000005 -1.5000333333333338
endloop
endfacet
facet normal -0.8193813501289781 -0.4380117900728746 -0.36981059316624376
outer loop
vertex -11.086533333333337 -4.592133333333335 1.5000333333333338
vertex -9.977916666666669 -4.133066666666668 -1.5000333333333338
vertex -8.979850000000003 -6.000133333333335 -1.5000333333333338
endloop
endfacet
facet normal -0.8193917199770171 -0.43796947195731906 -0.3698377358606512
outer loop
vertex -11.086533333333337 -4.592133333333335 1.5000333333333338
vertex -8.979850000000003 -6.000133333333335 -1.5000333333333338
vertex -9.977550000000003 -6.666916666666669 1.5000333333333338
endloop
endfacet
facet normal -0.7182070051764791 -0.5894012008427116 -0.36984445671201055
outer loop
vertex -9.977550000000003 -6.666916666666669 1.5000333333333338
vertex -8.979850000000003 -6.000133333333335 -1.5000333333333338
vertex -7.636750000000002 -7.636750000000002 -1.5000333333333338
endloop
endfacet
facet normal -0.7181891794979288 -0.5894393951515564 -0.3698182011413973
outer loop
vertex -9.977550000000003 -6.666916666666669 1.5000333333333338
vertex -7.636750000000002 -7.636750000000002 -1.5000333333333338
vertex -8.48521666666667 -8.48521666666667 1.5000333333333338
endloop
endfacet
facet normal -0.5894081797602788 -0.7182155092437902 -0.3698168194030089
outer loop
vertex -8.48521666666667 -8.48521666666667 1.5000333333333338
vertex -7.636750000000002 -7.636750000000002 -1.5000333333333338
vertex -6.000133333333335 -8.979850000000003 -1.5000333333333338
endloop
endfacet
facet normal -0.5894331134529918 -0.7181815257035352 -0.36984307605152594
outer loop
vertex -8.48521666666667 -8.48521666666667 1.5000333333333338
vertex -6.000133333333335 -8.979850000000003 -1.5000333333333338
vertex -6.666916666666669 -9.977550000000003 1.5000333333333338
endloop
endfacet
facet normal -0.43800642841708537 -0.8193713201689199 -0.36983916551651197
outer loop
vertex -6.666916666666669 -9.977550000000003 1.5000333333333338
vertex -6.000133333333335 -8.979850000000003 -1.5000333333333338
vertex -4.133066666666668 -9.977916666666669 -1.5000333333333338
endloop
endfacet
facet normal -0.4379742965387396 -0.819400746227296 -0.3698120234031696
outer loop
vertex -6.666916666666669 -9.977550000000003 1.5000333333333338
vertex -4.133066666666668 -9.977916666666669 -1.5000333333333338
vertex -4.592133333333335 -11.086533333333337 1.5000333333333338
endloop
endfacet
facet normal -0.26973829749850875 -0.8890863937413929 -0.36981973355478326
outer loop
vertex -2.3411666666666675 -11.769450000000004 1.5000333333333338
vertex -4.592133333333335 -11.086533333333337 1.5000333333333338
vertex -4.133066666666668 -9.977916666666669 -1.5000333333333338
endloop
endfacet
facet normal -0.26967933071424055 -0.8890889867908923 -0.3698565021094854
outer loop
vertex -2.3411666666666675 -11.769450000000004 1.5000333333333338
vertex -4.133066666666668 -9.977916666666669 -1.5000333333333338
vertex -2.1070500000000005 -10.592450000000003 -1.5000333333333338
endloop
endfacet
facet normal -0.0910856206902906 -0.9246131766415029 -0.3698565712331921
outer loop
vertex 0 -12.000083333333338 1.5000333333333338
vertex -2.3411666666666675 -11.769450000000004 1.5000333333333338
vertex -2.1070500000000005 -10.592450000000003 -1.5000333333333338
endloop
endfacet
facet normal -0.09106928348582774 -0.9246106670517806 -0.36986686791254936
outer loop
vertex 0 -12.000083333333338 1.5000333333333338
vertex -2.1070500000000005 -10.592450000000003 -1.5000333333333338
vertex 0 -10.799983333333337 -1.5000333333333338
endloop
endfacet
facet normal 0.09106928348582774 -0.9246106670517806 -0.36986686791254936
outer loop
vertex 0 -12.000083333333338 1.5000333333333338
vertex 0 -10.799983333333337 -1.5000333333333338
vertex 2.1070500000000005 -10.592450000000003 -1.5000333333333338
endloop
endfacet
facet normal 0.0910856206902906 -0.9246131766415029 -0.3698565712331921
outer loop
vertex 0 -12.000083333333338 1.5000333333333338
vertex 2.1070500000000005 -10.592450000000003 -1.5000333333333338
vertex 2.3411666666666675 -11.769450000000004 1.5000333333333338
endloop
endfacet
facet normal 0.26967933071424055 -0.8890889867908923 -0.3698565021094854
outer loop
vertex 2.3411666666666675 -11.769450000000004 1.5000333333333338
vertex 2.1070500000000005 -10.592450000000003 -1.5000333333333338
vertex 4.133066666666668 -9.977916666666669 -1.5000333333333338
endloop
endfacet
facet normal 0.26973829749850875 -0.8890863937413929 -0.36981973355478326
outer loop
vertex 2.3411666666666675 -11.769450000000004 1.5000333333333338
vertex 4.133066666666668 -9.977916666666669 -1.5000333333333338
vertex 4.592133333333335 -11.086533333333337 1.5000333333333338
endloop
endfacet
facet normal 0.4380117900728746 -0.8193813501289781 -0.36981059316624376
outer loop
vertex 4.592133333333335 -11.086533333333337 1.5000333333333338
vertex 4.133066666666668 -9.977916666666669 -1.5000333333333338
vertex 6.000133333333335 -8.979850000000003 -1.5000333333333338
endloop
endfacet
facet normal 0.43796947195731906 -0.8193917199770171 -0.3698377358606512
outer loop
vertex 4.592133333333335 -11.086533333333337 1.5000333333333338
vertex 6.000133333333335 -8.979850000000003 -1.5000333333333338
vertex 6.666916666666669 -9.977550000000003 1.5000333333333338
endloop
endfacet
facet normal 0.5894012008427116 -0.7182070051764791 -0.36984445671201055
outer loop
vertex 6.666916666666669 -9.977550000000003 1.5000333333333338
vertex 6.000133333333335 -8.979850000000003 -1.5000333333333338
vertex 7.636750000000002 -7.636750000000002 -1.5000333333333338
endloop
endfacet
facet normal 0.5894393951515564 -0.7181891794979288 -0.3698182011413973
outer loop
vertex 6.666916666666669 -9.977550000000003 1.5000333333333338
vertex 7.636750000000002 -7.636750000000002 -1.5000333333333338
vertex 8.48521666666667 -8.48521666666667 1.5000333333333338
endloop
endfacet
facet normal 0.7182155092437902 -0.5894081797602788 -0.3698168194030089
outer loop
vertex 8.48521666666667 -8.48521666666667 1.5000333333333338
vertex 7.636750000000002 -7.636750000000002 -1.5000333333333338
vertex 8.979850000000003 -6.000133333333335 -1.5000333333333338
endloop
endfacet
facet normal 0.7181815257035352 -0.5894331134529918 -0.36984307605152594
outer loop
vertex 8.48521666666667 -8.48521666666667 1.5000333333333338
vertex 8.979850000000003 -6.000133333333335 -1.5000333333333338
vertex 9.977550000000003 -6.666916666666669 1.5000333333333338
endloop
endfacet
facet normal 0.8193713201689199 -0.43800642841708537 -0.36983916551651197
outer loop
vertex 9.977550000000003 -6.666916666666669 1.5000333333333338
vertex 8.979850000000003 -6.000133333333335 -1.5000333333333338
vertex 9.977916666666669 -4.133066666666668 -1.5000333333333338
endloop
endfacet
facet normal 0.819400746227296 -0.4379742965387396 -0.3698120234031696
outer loop
vertex 9.977550000000003 -6.666916666666669 1.5000333333333338
vertex 9.977916666666669 -4.133066666666668 -1.5000333333333338
vertex 11.086533333333337 -4.592133333333335 1.5000333333333338
endloop
endfacet
facet normal 0.8890863937413929 -0.26973829749850875 -0.36981973355478326
outer loop
vertex 11.769450000000004 -2.3411666666666675 1.5000333333333338
vertex 11.086533333333337 -4.592133333333335 1.5000333333333338
vertex 9.977916666666669 -4.133066666666668 -1.5000333333333338
endloop
endfacet
facet normal 0.8890889867908923 -0.26967933071424055 -0.3698565021094854
outer loop
vertex 11.769450000000004 -2.3411666666666675 1.5000333333333338
vertex 9.977916666666669 -4.133066666666668 -1.5000333333333338
vertex 10.592450000000003 -2.1070500000000005 -1.5000333333333338
endloop
endfacet
facet normal 0.9246131766415029 -0.0910856206902906 -0.3698565712331921
outer loop
vertex 12.000083333333338 0 1.5000333333333338
vertex 11.769450000000004 -2.3411666666666675 1.5000333333333338
vertex 10.592450000000003 -2.1070500000000005 -1.5000333333333338
endloop
endfacet
facet normal 0.9246106670517806 -0.09106928348582774 -0.36986686791254936
outer loop
vertex 12.000083333333338 0 1.5000333333333338
vertex 10.592450000000003 -2.1070500000000005 -1.5000333333333338
vertex 10.799983333333337 0 -1.5000333333333338
endloop
endfacet
facet normal 0 0 1
outer loop
vertex 0 7.837866666666669 1.5000333333333338
vertex -2.3411666666666675 11.769450000000004 1.5000333333333338
vertex -4.592133333333335 11.086533333333337 1.5000333333333338
endloop
endfacet
facet normal 0 0 1
outer loop
vertex 0 7.837866666666669 1.5000333333333338
vertex -4.592133333333335 11.086533333333337 1.5000333333333338
vertex -6.666916666666669 9.977550000000003 1.5000333333333338
endloop
endfacet
facet normal 0 0 0.9999999999999999
outer loop
vertex 0 7.837866666666669 1.5000333333333338
vertex -6.666916666666669 9.977550000000003 1.5000333333333338
vertex -8.48521666666667 8.48521666666667 1.5000333333333338
endloop
endfacet
facet normal 0 0 1
outer loop
vertex 0 7.837866666666669 1.5000333333333338
vertex -8.48521666666667 8.48521666666667 1.5000333333333338
vertex -9.977550000000003 6.666916666666669 1.5000333333333338
endloop
endfacet
facet normal 0 0 1
outer loop
vertex 0 7.837866666666669 1.5000333333333338
vertex -9.977550000000003 6.666916666666669 1.5000333333333338
vertex -11.086533333333337 4.592133333333335 1.5000333333333338
endloop
endfacet
facet normal 0 0 1
outer loop
vertex 0 7.837866666666669 1.5000333333333338
vertex -11.086533333333337 4.592133333333335 1.5000333333333338
vertex -11.645333333333337 2.750000000000001 1.5000333333333338
endloop
endfacet
facet normal 0 0 1
outer loop
vertex 0 7.837866666666669 1.5000333333333338
vertex -11.645333333333337 2.750000000000001 1.5000333333333338
vertex 0 2.750000000000001 1.5000333333333338
endloop
endfacet
facet normal 0 0 1
outer loop
vertex 0 7.837866666666669 1.5000333333333338
vertex 0 2.750000000000001 1.5000333333333338
vertex 11.645333333333337 2.750000000000001 1.5000333333333338
endloop
endfacet
facet normal 0 0 1
outer loop
vertex 0 7.837866666666669 1.5000333333333338
vertex 11.645333333333337 2.750000000000001 1.5000333333333338
vertex 11.086533333333337 4.592133333333335 1.5000333333333338
endloop
endfacet
facet normal 0 0 1
outer loop
vertex 0 7.837866666666669 1.5000333333333338
vertex 11.086533333333337 4.592133333333335 1.5000333333333338
vertex 9.977550000000003 6.666916666666669 1.5000333333333338
endloop
endfacet
facet normal 0 0 1
outer loop
vertex 0 7.837866666666669 1.5000333333333338
vertex 9.977550000000003 6.666916666666669 1.5000333333333338
vertex 8.48521666666667 8.48521666666667 1.5000333333333338
endloop
endfacet
facet normal 0 0 0.9999999999999999
outer loop
vertex 0 7.837866666666669 1.5000333333333338
vertex 8.48521666666667 8.48521666666667 1.5000333333333338
vertex 6.666916666666669 9.977550000000003 1.5000333333333338
endloop
endfacet
facet normal 0 0 1
outer loop
vertex 0 7.837866666666669 1.5000333333333338
vertex 6.666916666666669 9.977550000000003 1.5000333333333338
vertex 4.592133333333335 11.086533333333337 1.5000333333333338
endloop
endfacet
facet normal 0 0 1
outer loop
vertex 0 7.837866666666669 1.5000333333333338
vertex 4.592133333333335 11.086533333333337 1.5000333333333338
vertex 2.3411666666666675 11.769450000000004 1.5000333333333338
endloop
endfacet
facet normal 0 0 1
outer loop
vertex 0 7.837866666666669 1.5000333333333338
vertex 2.3411666666666675 11.769450000000004 1.5000333333333338
vertex 0 12.000083333333338 1.5000333333333338
endloop
endfacet
facet normal 0 0 1
outer loop
vertex 0 7.837866666666669 1.5000333333333338
vertex 0 12.000083333333338 1.5000333333333338
vertex -2.3411666666666675 11.769450000000004 1.5000333333333338
endloop
endfacet
facet normal 0 0 0.9999999999999999
outer loop
vertex 0 2.750000000000001 1.5000333333333338
vertex 0.5364333333333335 2.697200000000001 1.5000333333333338
vertex 11.661466666666671 2.697200000000001 1.5000333333333338
endloop
endfacet
facet normal 0 0 1
outer loop
vertex 0 2.750000000000001 1.5000333333333338
vertex 11.661466666666671 2.697200000000001 1.5000333333333338
vertex 11.645333333333337 2.750000000000001 1.5000333333333338
endloop
endfacet
facet normal 0 0 0.9999999999999999
outer loop
vertex -11.645333333333337 2.750000000000001 1.5000333333333338
vertex -11.661466666666671 2.697200000000001 1.5000333333333338
vertex -0.5364333333333335 2.697200000000001 1.5000333333333338
endloop
endfacet
facet normal 0 0 1
outer loop
vertex -11.645333333333337 2.750000000000001 1.5000333333333338
vertex -0.5364333333333335 2.697200000000001 1.5000333333333338
vertex 0 2.750000000000001 1.5000333333333338
endloop
endfacet
facet normal 0 0 1
outer loop
vertex 0.5364333333333335 2.697200000000001 1.5000333333333338
vertex 1.0523333333333336 2.540633333333334 1.5000333333333338
vertex 11.708950000000003 2.540633333333334 1.5000333333333338
endloop
endfacet
facet normal 0 0 1
outer loop
vertex 0.5364333333333335 2.697200000000001 1.5000333333333338
vertex 11.708950000000003 2.540633333333334 1.5000333333333338
vertex 11.661466666666671 2.697200000000001 1.5000333333333338
endloop
endfacet
facet normal 0 0 0.9999999999999999
outer loop
vertex -11.661466666666671 2.697200000000001 1.5000333333333338
vertex -11.708950000000003 2.540633333333334 1.5000333333333338
vertex -1.0523333333333336 2.540633333333334 1.5000333333333338
endloop
endfacet
facet normal 0 0 1
outer loop
vertex -11.661466666666671 2.697200000000001 1.5000333333333338
vertex -1.0523333333333336 2.540633333333334 1.5000333333333338
vertex -0.5364333333333335 2.697200000000001 1.5000333333333338
endloop
endfacet
facet normal 0 0 1
outer loop
vertex 7.566716666666669 2.3991000000000007 1.5000333333333338
vertex 1.0523333333333336 2.540633333333334 1.5000333333333338
vertex 1.5279000000000005 2.286533333333334 1.5000333333333338
endloop
endfacet
facet normal 0 0 1
outer loop
vertex 7.566716666666669 2.3991000000000007 1.5000333333333338
vertex 1.5279000000000005 2.286533333333334 1.5000333333333338
vertex 11.77476666666667 2.286533333333334 1.5000333333333338
endloop
endfacet
facet normal 0 0 1
outer loop
vertex 7.566716666666669 2.3991000000000007 1.5000333333333338
vertex 11.77476666666667 2.286533333333334 1.5000333333333338
vertex 11.769450000000004 2.3411666666666675 1.5000333333333338
endloop
endfacet
facet normal 0 0 1
outer loop
vertex 7.566716666666669 2.3991000000000007 1.5000333333333338
vertex 11.769450000000004 2.3411666666666675 1.5000333333333338
vertex 11.708950000000003 2.540633333333334 1.5000333333333338
endloop
endfacet
facet normal 0 0 1
outer loop
vertex 7.566716666666669 2.3991000000000007 1.5000333333333338
vertex 11.708950000000003 2.540633333333334 1.5000333333333338
vertex 1.0523333333333336 2.540633333333334 1.5000333333333338
endloop
endfacet
facet normal 0 0 1
outer loop
vertex -7.566716666666669 2.3991000000000007 1.5000333333333338
vertex -11.708950000000003 2.540633333333334 1.5000333333333338
vertex -11.769450000000004 2.3411666666666675 1.5000333333333338
endloop
endfacet
facet normal 0 0 1
outer loop
vertex -7.566716666666669 2.3991000000000007 1.5000333333333338
vertex -11.769450000000004 2.3411666666666675 1.5000333333333338
vertex -11.77476666666667 2.286533333333334 1.5000333333333338
endloop
endfacet
facet normal 0 0 1
outer loop
vertex -7.566716666666669 2.3991000000000007 1.5000333333333338
vertex -11.77476666666667 2.286533333333334 1.5000333333333338
vertex -1.5279000000000005 2.286533333333334 1.5000333333333338
endloop
endfacet
facet normal 0 0 1
outer loop
vertex -7.566716666666669 2.3991000000000007 1.5000333333333338
vertex -1.5279000000000005 2.286533333333334 1.5000333333333338
vertex -1.0523333333333336 2.540633333333334 1.5000333333333338
endloop
endfacet
facet normal 0 0 1
outer loop
vertex -7.566716666666669 2.3991000000000007 1.5000333333333338
vertex -1.0523333333333336 2.540633333333334 1.5000333333333338
vertex -11.708950000000003 2.540633333333334 1.5000333333333338
endloop
endfacet
facet normal 0 0 0.9999999999999999
outer loop
vertex 1.5279000000000005 2.286533333333334 1.5000333333333338
vertex 1.9446166666666673 1.9446166666666673 1.5000333333333338
vertex 11.808500000000004 1.9446166666666673 1.5000333333333338
endloop
endfacet
facet normal 0 0 1
outer loop
vertex 1.5279000000000005 2.286533333333334 1.5000333333333338
vertex 11.808500000000004 1.9446166666666673 1.5000333333333338
vertex 11.77476666666667 2.286533333333334 1.5000333333333338
endloop
endfacet
facet normal 0 0 0.9999999999999999
outer loop
vertex -11.77476666666667 2.286533333333334 1.5000333333333338
vertex -11.808500000000004 1.9446166666666673 1.5000333333333338
vertex -1.9446166666666673 1.9446166666666673 1.5000333333333338
endloop
endfacet
facet normal 0 0 1
outer loop
vertex -11.77476666666667 2.286533333333334 1.5000333333333338
vertex -1.9446166666666673 1.9446166666666673 1.5000333333333338
vertex -1.5279000000000005 2.286533333333334 1.5000333333333338
endloop
endfacet
facet normal 0 0 1
outer loop
vertex 1.9446166666666673 1.9446166666666673 1.5000333333333338
vertex 2.286533333333334 1.5279000000000005 1.5000333333333338
vertex 11.84956666666667 1.5279000000000005 1.5000333333333338
endloop
endfacet
facet normal 0 0 1
outer loop
vertex 1.9446166666666673 1.9446166666666673 1.5000333333333338
vertex 11.84956666666667 1.5279000000000005 1.5000333333333338
vertex 11.808500000000004 1.9446166666666673 1.5000333333333338
endloop
endfacet
facet normal 0 0 0.9999999999999999
outer loop
vertex -11.808500000000004 1.9446166666666673 1.5000333333333338
vertex -11.84956666666667 1.5279000000000005 1.5000333333333338
vertex -2.286533333333334 1.5279000000000005 1.5000333333333338
endloop
endfacet
facet normal 0 0 1
outer loop
vertex -11.808500000000004 1.9446166666666673 1.5000333333333338
vertex -2.286533333333334 1.5279000000000005 1.5000333333333338
vertex -1.9446166666666673 1.9446166666666673 1.5000333333333338
endloop
endfacet
facet normal 0 0 1
outer loop
vertex 2.286533333333334 1.5279000000000005 1.5000333333333338
vertex 2.540633333333334 1.0523333333333336 1.5000333333333338
vertex 11.89631666666667 1.0523333333333336 1.5000333333333338
endloop
endfacet
facet normal 0 0 1
outer loop
vertex 2.286533333333334 1.5279000000000005 1.5000333333333338
vertex 11.89631666666667 1.0523333333333336 1.5000333333333338
vertex 11.84956666666667 1.5279000000000005 1.5000333333333338
endloop
endfacet
facet normal 0 0 1
outer loop
vertex -11.84956666666667 1.5279000000000005 1.5000333333333338
vertex -11.89631666666667 1.0523333333333336 1.5000333333333338
vertex -2.540633333333334 1.0523333333333336 1.5000333333333338
endloop
endfacet
facet normal 0 0 1
outer loop
vertex -11.84956666666667 1.5279000000000005 1.5000333333333338
vertex -2.540633333333334 1.0523333333333336 1.5000333333333338
vertex -2.286533333333334 1.5279000000000005 1.5000333333333338
endloop
endfacet
facet normal 0 0 1
outer loop
vertex -0.6750333333333335 2.1499500000000005 1.5000333333333338
vertex -0.6750333333333335 0.6999666666666668 1.5000333333333338
vertex 0.6750333333333335 0.6999666666666668 1.5000333333333338
endloop
endfacet
facet normal 0 0 1
outer loop
vertex -0.6750333333333335 2.1499500000000005 1.5000333333333338
vertex 0.6750333333333335 0.6999666666666668 1.5000333333333338
vertex 0.6750333333333335 2.1499500000000005 1.5000333333333338
endloop
endfacet
facet normal 0 0 1
outer loop
vertex 2.540633333333334 1.0523333333333336 1.5000333333333338
vertex 2.697200000000001 0.5364333333333335 1.5000333333333338
vertex 11.947100000000004 0.5364333333333335 1.5000333333333338
endloop
endfacet
facet normal 0 0 1
outer loop
vertex 2.540633333333334 1.0523333333333336 1.5000333333333338
vertex 11.947100000000004 0.5364333333333335 1.5000333333333338
vertex 11.89631666666667 1.0523333333333336 1.5000333333333338
endloop
endfacet
facet normal 0 0 1
outer loop
vertex -11.89631666666667 1.0523333333333336 1.5000333333333338
vertex -11.947100000000004 0.5364333333333335 1.5000333333333338
vertex -2.697200000000001 0.5364333333333335 1.5000333333333338
endloop
endfacet
facet normal 0 0 1
outer loop
vertex -11.89631666666667 1.0523333333333336 1.5000333333333338
vertex -2.697200000000001 0.5364333333333335 1.5000333333333338
vertex -2.540633333333334 1.0523333333333336 1.5000333333333338
endloop
endfacet
facet normal 0 0 1
outer loop
vertex 2.697200000000001 0.5364333333333335 1.5000333333333338
vertex 2.750000000000001 0 1.5000333333333338
vertex 12.000083333333338 0 1.5000333333333338
endloop
endfacet
facet normal 0 0 1
outer loop
vertex 2.697200000000001 0.5364333333333335 1.5000333333333338
vertex 12.000083333333338 0 1.5000333333333338
vertex 11.947100000000004 0.5364333333333335 1.5000333333333338
endloop
endfacet
facet normal 0 0 1
outer loop
vertex -11.947100000000004 0.5364333333333335 1.5000333333333338
vertex -12.000083333333338 0 1.5000333333333338
vertex -2.750000000000001 0 1.5000333333333338
endloop
endfacet
facet normal 0 0 1
outer loop
vertex -11.947100000000004 0.5364333333333335 1.5000333333333338
vertex -2.750000000000001 0 1.5000333333333338
vertex -2.697200000000001 0.5364333333333335 1.5000333333333338
endloop
endfacet
facet normal 0 0 1
outer loop
vertex 2.750000000000001 0 1.5000333333333338
vertex 2.697200000000001 -0.5364333333333335 1.5000333333333338
vertex 11.947100000000004 -0.5364333333333335 1.5000333333333338
endloop
endfacet
facet normal 0 0 1
outer loop
vertex 2.750000000000001 0 1.5000333333333338
vertex 11.947100000000004 -0.5364333333333335 1.5000333333333338
vertex 12.000083333333338 0 1.5000333333333338
endloop
endfacet
facet normal 0 0 1
outer loop
vertex -12.000083333333338 0 1.5000333333333338
vertex -11.947100000000004 -0.5364333333333335 1.5000333333333338
vertex -2.697200000000001 -0.5364333333333335 1.5000333333333338
endloop
endfacet
facet normal 0 0 1
outer loop
vertex -12.000083333333338 0 1.5000333333333338
vertex -2.697200000000001 -0.5364333333333335 1.5000333333333338
vertex -2.750000000000001 0 1.5000333333333338
endloop
endfacet
facet normal 0 0 0.9999999999999999
outer loop
vertex 0 0 1.5000333333333338
vertex 0.6750333333333335 0.6999666666666668 1.5000333333333338
vertex -0.6750333333333335 0.6999666666666668 1.5000333333333338
endloop
endfacet
facet normal 0 0 1
outer loop
vertex 0 0 1.5000333333333338
vertex -0.6750333333333335 0.6999666666666668 1.5000333333333338
vertex -2.1499500000000005 0.6999666666666668 1.5000333333333338
endloop
endfacet
facet normal 0 0 1
outer loop
vertex 0 0 1.5000333333333338
vertex -2.1499500000000005 0.6999666666666668 1.5000333333333338
vertex -2.1499500000000005 -0.6999666666666668 1.5000333333333338
endloop
endfacet
facet normal 0 0 1
outer loop
vertex 0 0 1.5000333333333338
vertex -2.1499500000000005 -0.6999666666666668 1.5000333333333338
vertex -0.6750333333333335 -0.6999666666666668 1.5000333333333338
endloop
endfacet
facet normal 0 0 0.9999999999999999
outer loop
vertex 0 0 1.5000333333333338
vertex -0.6750333333333335 -0.6999666666666668 1.5000333333333338
vertex 0.6750333333333335 -0.6999666666666668 1.5000333333333338
endloop
endfacet
facet normal 0 0 1
outer loop
vertex 0 0 1.5000333333333338
vertex 0.6750333333333335 -0.6999666666666668 1.5000333333333338
vertex 2.1499500000000005 -0.6999666666666668 1.5000333333333338
endloop
endfacet
facet normal 0 0 1
outer loop
vertex 0 0 1.5000333333333338
vertex 2.1499500000000005 -0.6999666666666668 1.5000333333333338
vertex 2.1499500000000005 0.6999666666666668 1.5000333333333338
endloop
endfacet
facet normal 0 0 1
outer loop
vertex 0 0 1.5000333333333338
vertex 2.1499500000000005 0.6999666666666668 1.5000333333333338
vertex 0.6750333333333335 0.6999666666666668 1.5000333333333338
endloop
endfacet
facet normal 0 0 1
outer loop
vertex 2.697200000000001 -0.5364333333333335 1.5000333333333338
vertex 2.540633333333334 -1.0523333333333336 1.5000333333333338
vertex 11.89631666666667 -1.0523333333333336 1.5000333333333338
endloop
endfacet
facet normal 0 0 1
outer loop
vertex 2.697200000000001 -0.5364333333333335 1.5000333333333338
vertex 11.89631666666667 -1.0523333333333336 1.5000333333333338
vertex 11.947100000000004 -0.5364333333333335 1.5000333333333338
endloop
endfacet
facet normal 0 0 1
outer loop
vertex -11.947100000000004 -0.5364333333333335 1.5000333333333338
vertex -11.89631666666667 -1.0523333333333336 1.5000333333333338
vertex -2.540633333333334 -1.0523333333333336 1.5000333333333338
endloop
endfacet
facet normal 0 0 1
outer loop
vertex -11.947100000000004 -0.5364333333333335 1.5000333333333338
vertex -2.540633333333334 -1.0523333333333336 1.5000333333333338
vertex -2.697200000000001 -0.5364333333333335 1.5000333333333338
endloop
endfacet
facet normal 0 0 1
outer loop
vertex 2.540633333333334 -1.0523333333333336 1.5000333333333338
vertex 2.286533333333334 -1.5279000000000005 1.5000333333333338
vertex 11.84956666666667 -1.5279000000000005 1.5000333333333338
endloop
endfacet
facet normal 0 0 1
outer loop
vertex 2.540633333333334 -1.0523333333333336 1.5000333333333338
vertex 11.84956666666667 -1.5279000000000005 1.5000333333333338
vertex 11.89631666666667 -1.0523333333333336 1.5000333333333338
endloop
endfacet
facet normal 0 0 1
outer loop
vertex -11.89631666666667 -1.0523333333333336 1.5000333333333338
vertex -11.84956666666667 -1.5279000000000005 1.5000333333333338
vertex -2.286533333333334 -1.5279000000000005 1.5000333333333338
endloop
endfacet
facet normal 0 0 1
outer loop
vertex -11.89631666666667 -1.0523333333333336 1.5000333333333338
vertex -2.286533333333334 -1.5279000000000005 1.5000333333333338
vertex -2.540633333333334 -1.0523333333333336 1.5000333333333338
endloop
endfacet
facet normal 0 0 1
outer loop
vertex 2.286533333333334 -1.5279000000000005 1.5000333333333338
vertex 1.9446166666666673 -1.9446166666666673 1.5000333333333338
vertex 11.808500000000004 -1.9446166666666673 1.5000333333333338
endloop
endfacet
facet normal 0 0 0.9999999999999999
outer loop
vertex 2.286533333333334 -1.5279000000000005 1.5000333333333338
vertex 11.808500000000004 -1.9446166666666673 1.5000333333333338
vertex 11.84956666666667 -1.5279000000000005 1.5000333333333338
endloop
endfacet
facet normal 0 0 1
outer loop
vertex -11.84956666666667 -1.5279000000000005 1.5000333333333338
vertex -11.808500000000004 -1.9446166666666673 1.5000333333333338
vertex -1.9446166666666673 -1.9446166666666673 1.5000333333333338
endloop
endfacet
facet normal 0 0 0.9999999999999999
outer loop
vertex -11.84956666666667 -1.5279000000000005 1.5000333333333338
vertex -1.9446166666666673 -1.9446166666666673 1.5000333333333338
vertex -2.286533333333334 -1.5279000000000005 1.5000333333333338
endloop
endfacet
facet normal 0 0 1
outer loop
vertex -0.6750333333333335 -0.6999666666666668 1.5000333333333338
vertex -0.6750333333333335 -2.1499500000000005 1.5000333333333338
vertex 0.6750333333333335 -2.1499500000000005 1.5000333333333338
endloop
endfacet
facet normal 0 0 1
outer loop
vertex -0.6750333333333335 -0.6999666666666668 1.5000333333333338
vertex 0.6750333333333335 -2.1499500000000005 1.5000333333333338
vertex 0.6750333333333335 -0.6999666666666668 1.5000333333333338
endloop
endfacet
facet normal 0 0 1
outer loop
vertex 1.9446166666666673 -1.9446166666666673 1.5000333333333338
vertex 1.5279000000000005 -2.286533333333334 1.5000333333333338
vertex 11.77476666666667 -2.286533333333334 1.5000333333333338
endloop
endfacet
facet normal 0 0 0.9999999999999999
outer loop
vertex 1.9446166666666673 -1.9446166666666673 1.5000333333333338
vertex 11.77476666666667 -2.286533333333334 1.5000333333333338
vertex 11.808500000000004 -1.9446166666666673 1.5000333333333338
endloop
endfacet
facet normal 0 0 1
outer loop
vertex -11.808500000000004 -1.9446166666666673 1.5000333333333338
vertex -11.77476666666667 -2.286533333333334 1.5000333333333338
vertex -1.5279000000000005 -2.286533333333334 1.5000333333333338
endloop
endfacet
facet normal 0 0 0.9999999999999999
outer loop
vertex -11.808500000000004 -1.9446166666666673 1.5000333333333338
vertex -1.5279000000000005 -2.286533333333334 1.5000333333333338
vertex -1.9446166666666673 -1.9446166666666673 1.5000333333333338
endloop
endfacet
facet normal 0 0 1
outer loop
vertex 7.566716666666669 -2.3991000000000007 1.5000333333333338
vertex 1.5279000000000005 -2.286533333333334 1.5000333333333338
vertex 1.0523333333333336 -2.540633333333334 1.5000333333333338
endloop
endfacet
facet normal 0 0 1
outer loop
vertex 7.566716666666669 -2.3991000000000007 1.5000333333333338
vertex 1.0523333333333336 -2.540633333333334 1.5000333333333338
vertex 11.708950000000003 -2.540633333333334 1.5000333333333338
endloop
endfacet
facet normal 0 0 1
outer loop
vertex 7.566716666666669 -2.3991000000000007 1.5000333333333338
vertex 11.708950000000003 -2.540633333333334 1.5000333333333338
vertex 11.769450000000004 -2.3411666666666675 1.5000333333333338
endloop
endfacet
facet normal 0 0 1
outer loop
vertex 7.566716666666669 -2.3991000000000007 1.5000333333333338
vertex 11.769450000000004 -2.3411666666666675 1.5000333333333338
vertex 11.77476666666667 -2.286533333333334 1.5000333333333338
endloop
endfacet
facet normal 0 0 1
outer loop
vertex 7.566716666666669 -2.3991000000000007 1.5000333333333338
vertex 11.77476666666667 -2.286533333333334 1.5000333333333338
vertex 1.5279000000000005 -2.286533333333334 1.5000333333333338
endloop
endfacet
facet normal 0 0 1
outer loop
vertex -7.566716666666669 -2.3991000000000007 1.5000333333333338
vertex -11.77476666666667 -2.286533333333334 1.5000333333333338
vertex -11.769450000000004 -2.3411666666666675 1.5000333333333338
endloop
endfacet
facet normal 0 0 1
outer loop
vertex -7.566716666666669 -2.3991000000000007 1.5000333333333338
vertex -11.769450000000004 -2.3411666666666675 1.5000333333333338
vertex -11.708950000000003 -2.540633333333334 1.5000333333333338
endloop
endfacet
facet normal 0 0 1
outer loop
vertex -7.566716666666669 -2.3991000000000007 1.5000333333333338
vertex -11.708950000000003 -2.540633333333334 1.5000333333333338
vertex -1.0523333333333336 -2.540633333333334 1.5000333333333338
endloop
endfacet
facet normal 0 0 1
outer loop
vertex -7.566716666666669 -2.3991000000000007 1.5000333333333338
vertex -1.0523333333333336 -2.540633333333334 1.5000333333333338
vertex -1.5279000000000005 -2.286533333333334 1.5000333333333338
endloop
endfacet
facet normal 0 0 1
outer loop
vertex -7.566716666666669 -2.3991000000000007 1.5000333333333338
vertex -1.5279000000000005 -2.286533333333334 1.5000333333333338
vertex -11.77476666666667 -2.286533333333334 1.5000333333333338
endloop
endfacet
facet normal 0 0 1
outer loop
vertex 1.0523333333333336 -2.540633333333334 1.5000333333333338
vertex 0.5364333333333335 -2.697200000000001 1.5000333333333338
vertex 11.661466666666671 -2.697200000000001 1.5000333333333338
endloop
endfacet
facet normal 0 0 0.9999999999999999
outer loop
vertex 1.0523333333333336 -2.540633333333334 1.5000333333333338
vertex 11.661466666666671 -2.697200000000001 1.5000333333333338
vertex 11.708950000000003 -2.540633333333334 1.5000333333333338
endloop
endfacet
facet normal 0 0 1
outer loop
vertex -11.708950000000003 -2.540633333333334 1.5000333333333338
vertex -11.661466666666671 -2.697200000000001 1.5000333333333338
vertex -0.5364333333333335 -2.697200000000001 1.5000333333333338
endloop
endfacet
facet normal 0 0 0.9999999999999999
outer loop
vertex -11.708950000000003 -2.540633333333334 1.5000333333333338
vertex -0.5364333333333335 -2.697200000000001 1.5000333333333338
vertex -1.0523333333333336 -2.540633333333334 1.5000333333333338
endloop
endfacet
facet normal 0 0 1
outer loop
vertex 0.5364333333333335 -2.697200000000001 1.5000333333333338
vertex 0 -2.750000000000001 1.5000333333333338
vertex 11.645333333333337 -2.750000000000001 1.5000333333333338
endloop
endfacet
facet normal 0 0 0.9999999999999999
outer loop
vertex 0.5364333333333335 -2.697200000000001 1.5000333333333338
vertex 11.645333333333337 -2.750000000000001 1.5000333333333338
vertex 11.661466666666671 -2.697200000000001 1.5000333333333338
endloop
endfacet
facet normal 0 0 1
outer loop
vertex -11.661466666666671 -2.697200000000001 1.5000333333333338
vertex -11.645333333333337 -2.750000000000001 1.5000333333333338
vertex 0 -2.750000000000001 1.5000333333333338
endloop
endfacet
facet normal 0 0 0.9999999999999999
outer loop
vertex -11.661466666666671 -2.697200000000001 1.5000333333333338
vertex 0 -2.750000000000001 1.5000333333333338
vertex -0.5364333333333335 -2.697200000000001 1.5000333333333338
endloop
endfacet
facet normal 0 0 1
outer loop
vertex 0 -7.837866666666669 1.5000333333333338
vertex 0 -2.750000000000001 1.5000333333333338
vertex -11.645333333333337 -2.750000000000001 1.5000333333333338
endloop
endfacet
facet normal 0 0 1
outer loop
vertex 0 -7.837866666666669 1.5000333333333338
vertex -11.645333333333337 -2.750000000000001 1.5000333333333338
vertex -11.086533333333337 -4.592133333333335 1.5000333333333338
endloop
endfacet
facet normal 0 0 1
outer loop
vertex 0 -7.837866666666669 1.5000333333333338
vertex -11.086533333333337 -4.592133333333335 1.5000333333333338
vertex -9.977550000000003 -6.666916666666669 1.5000333333333338
endloop
endfacet
facet normal 0 0 1
outer loop
vertex 0 -7.837866666666669 1.5000333333333338
vertex -9.977550000000003 -6.666916666666669 1.5000333333333338
vertex -8.48521666666667 -8.48521666666667 1.5000333333333338
endloop
endfacet
facet normal 0 0 0.9999999999999999
outer loop
vertex 0 -7.837866666666669 1.5000333333333338
vertex -8.48521666666667 -8.48521666666667 1.5000333333333338
vertex -6.666916666666669 -9.977550000000003 1.5000333333333338
endloop
endfacet
facet normal 0 0 1
outer loop
vertex 0 -7.837866666666669 1.5000333333333338
vertex -6.666916666666669 -9.977550000000003 1.5000333333333338
vertex -4.592133333333335 -11.086533333333337 1.5000333333333338
endloop
endfacet
facet normal 0 0 1
outer loop
vertex 0 -7.837866666666669 1.5000333333333338
vertex -4.592133333333335 -11.086533333333337 1.5000333333333338
vertex -2.3411666666666675 -11.769450000000004 1.5000333333333338
endloop
endfacet
facet normal 0 0 1
outer loop
vertex 0 -7.837866666666669 1.5000333333333338
vertex -2.3411666666666675 -11.769450000000004 1.5000333333333338
vertex 0 -12.000083333333338 1.5000333333333338
endloop
endfacet
facet normal 0 0 1
outer loop
vertex 0 -7.837866666666669 1.5000333333333338
vertex 0 -12.000083333333338 1.5000333333333338
vertex 2.3411666666666675 -11.769450000000004 1.5000333333333338
endloop
endfacet
facet normal 0 0 1
outer loop
vertex 0 -7.837866666666669 1.5000333333333338
vertex 2.3411666666666675 -11.769450000000004 1.5000333333333338
vertex 4.592133333333335 -11.086533333333337 1.5000333333333338
endloop
endfacet
facet normal 0 0 1
outer loop
vertex 0 -7.837866666666669 1.5000333333333338
vertex 4.592133333333335 -11.086533333333337 1.5000333333333338
vertex 6.666916666666669 -9.977550000000003 1.5000333333333338
endloop
endfacet
facet normal 0 0 0.9999999999999999
outer loop
vertex 0 -7.837866666666669 1.5000333333333338
vertex 6.666916666666669 -9.977550000000003 1.5000333333333338
vertex 8.48521666666667 -8.48521666666667 1.5000333333333338
endloop
endfacet
facet normal 0 0 1
outer loop
vertex 0 -7.837866666666669 1.5000333333333338
vertex 8.48521666666667 -8.48521666666667 1.5000333333333338
vertex 9.977550000000003 -6.666916666666669 1.5000333333333338
endloop
endfacet
facet normal 0 0 1
outer loop
vertex 0 -7.837866666666669 1.5000333333333338
vertex 9.977550000000003 -6.666916666666669 1.5000333333333338
vertex 11.086533333333337 -4.592133333333335 1.5000333333333338
endloop
endfacet
facet normal 0 0 1
outer loop
vertex 0 -7.837866666666669 1.5000333333333338
vertex 11.086533333333337 -4.592133333333335 1.5000333333333338
vertex 11.645333333333337 -2.750000000000001 1.5000333333333338
endloop
endfacet
facet normal 0 0 1
outer loop
vertex 0 -7.837866666666669 1.5000333333333338
vertex 11.645333333333337 -2.750000000000001 1.5000333333333338
vertex 0 -2.750000000000001 1.5000333333333338
endloop
endfacet
facet normal 0.995190890533067 0.09795453741405433 0
outer loop
vertex 2.697200000000001 0.5364333333333335 1.5000333333333338
vertex 2.697200000000001 0.5364333333333335 5.500000000000002
vertex 2.750000000000001 0 5.500000000000002
endloop
endfacet
facet normal 0.995190890533067 0.09795453741405433 0
outer loop
vertex 2.697200000000001 0.5364333333333335 1.5000333333333338
vertex 2.750000000000001 0 5.500000000000002
vertex 2.750000000000001 0 1.5000333333333338
endloop
endfacet
facet normal 0.9569042033151001 0.2904037631951304 0
outer loop
vertex 2.540633333333334 1.0523333333333336 1.5000333333333338
vertex 2.540633333333334 1.0523333333333336 5.500000000000002
vertex 2.697200000000001 0.5364333333333335 5.500000000000002
endloop
endfacet
facet normal 0.9569042033151001 0.2904037631951304 0
outer loop
vertex 2.540633333333334 1.0523333333333336 1.5000333333333338
vertex 2.697200000000001 0.5364333333333335 5.500000000000002
vertex 2.697200000000001 0.5364333333333335 1.5000333333333338
endloop
endfacet
facet normal 0.8819950250706875 0.4712587142436281 0
outer loop
vertex 2.286533333333334 1.5279000000000005 1.5000333333333338
vertex 2.286533333333334 1.5279000000000005 5.500000000000002
vertex 2.540633333333334 1.0523333333333336 5.500000000000002
endloop
endfacet
facet normal 0.8819950250706875 0.4712587142436281 0
outer loop
vertex 2.286533333333334 1.5279000000000005 1.5000333333333338
vertex 2.540633333333334 1.0523333333333336 5.500000000000002
vertex 2.540633333333334 1.0523333333333336 1.5000333333333338
endloop
endfacet
facet normal 0.7730776469393763 0.634311399710487 0
outer loop
vertex 1.9446166666666673 1.9446166666666673 1.5000333333333338
vertex 1.9446166666666673 1.9446166666666673 5.500000000000002
vertex 2.286533333333334 1.5279000000000005 5.500000000000002
endloop
endfacet
facet normal 0.7730776469393763 0.634311399710487 0
outer loop
vertex 1.9446166666666673 1.9446166666666673 1.5000333333333338
vertex 2.286533333333334 1.5279000000000005 5.500000000000002
vertex 2.286533333333334 1.5279000000000005 1.5000333333333338
endloop
endfacet
facet normal 0.634311399710487 0.7730776469393763 0
outer loop
vertex 1.5279000000000005 2.286533333333334 1.5000333333333338
vertex 1.5279000000000005 2.286533333333334 5.500000000000002
vertex 1.9446166666666673 1.9446166666666673 5.500000000000002
endloop
endfacet
facet normal 0.634311399710487 0.7730776469393763 0
outer loop
vertex 1.5279000000000005 2.286533333333334 1.5000333333333338
vertex 1.9446166666666673 1.9446166666666673 5.500000000000002
vertex 1.9446166666666673 1.9446166666666673 1.5000333333333338
endloop
endfacet
facet normal 0.4712587142436281 0.8819950250706875 0
outer loop
vertex 1.0523333333333336 2.540633333333334 1.5000333333333338
vertex 1.0523333333333336 2.540633333333334 5.500000000000002
vertex 1.5279000000000005 2.286533333333334 5.500000000000002
endloop
endfacet
facet normal 0.4712587142436281 0.8819950250706875 0
outer loop
vertex 1.0523333333333336 2.540633333333334 1.5000333333333338
vertex 1.5279000000000005 2.286533333333334 5.500000000000002
vertex 1.5279000000000005 2.286533333333334 1.5000333333333338
endloop
endfacet
facet normal 0.2904037631951304 0.9569042033151001 0
outer loop
vertex 0.5364333333333335 2.697200000000001 1.5000333333333338
vertex 0.5364333333333335 2.697200000000001 5.500000000000002
vertex 1.0523333333333336 2.540633333333334 5.500000000000002
endloop
endfacet
facet normal 0.2904037631951304 0.9569042033151001 0
outer loop
vertex 0.5364333333333335 2.697200000000001 1.5000333333333338
vertex 1.0523333333333336 2.540633333333334 5.500000000000002
vertex 1.0523333333333336 2.540633333333334 1.5000333333333338
endloop
endfacet
facet normal 0.09795453741405433 0.995190890533067 0
outer loop
vertex 0 2.750000000000001 1.5000333333333338
vertex 0 2.750000000000001 5.500000000000002
vertex 0.5364333333333335 2.697200000000001 5.500000000000002
endloop
endfacet
facet normal 0.09795453741405433 0.995190890533067 0
outer loop
vertex 0 2.750000000000001 1.5000333333333338
vertex 0.5364333333333335 2.697200000000001 5.500000000000002
vertex 0.5364333333333335 2.697200000000001 1.5000333333333338
endloop
endfacet
facet normal -0.09795453741405433 0.995190890533067 0
outer loop
vertex -0.5364333333333335 2.697200000000001 1.5000333333333338
vertex -0.5364333333333335 2.697200000000001 5.500000000000002
vertex 0 2.750000000000001 5.500000000000002
endloop
endfacet
facet normal -0.09795453741405433 0.995190890533067 0
outer loop
vertex -0.5364333333333335 2.697200000000001 1.5000333333333338
vertex 0 2.750000000000001 5.500000000000002
vertex 0 2.750000000000001 1.5000333333333338
endloop
endfacet
facet normal -0.2904037631951304 0.9569042033151001 0
outer loop
vertex -1.0523333333333336 2.540633333333334 1.5000333333333338
vertex -1.0523333333333336 2.540633333333334 5.500000000000002
vertex -0.5364333333333335 2.697200000000001 5.500000000000002
endloop
endfacet
facet normal -0.2904037631951304 0.9569042033151001 0
outer loop
vertex -1.0523333333333336 2.540633333333334 1.5000333333333338
vertex -0.5364333333333335 2.697200000000001 5.500000000000002
vertex -0.5364333333333335 2.697200000000001 1.5000333333333338
endloop
endfacet
facet normal -0.4712587142436281 0.8819950250706875 0
outer loop
vertex -1.5279000000000005 2.286533333333334 1.5000333333333338
vertex -1.5279000000000005 2.286533333333334 5.500000000000002
vertex -1.0523333333333336 2.540633333333334 5.500000000000002
endloop
endfacet
facet normal -0.4712587142436281 0.8819950250706875 0
outer loop
vertex -1.5279000000000005 2.286533333333334 1.5000333333333338
vertex -1.0523333333333336 2.540633333333334 5.500000000000002
vertex -1.0523333333333336 2.540633333333334 1.5000333333333338
endloop
endfacet
facet normal -0.634311399710487 0.7730776469393763 0
outer loop
vertex -1.9446166666666673 1.9446166666666673 1.5000333333333338
vertex -1.9446166666666673 1.9446166666666673 5.500000000000002
vertex -1.5279000000000005 2.286533333333334 5.500000000000002
endloop
endfacet
facet normal -0.634311399710487 0.7730776469393763 0
outer loop
vertex -1.9446166666666673 1.9446166666666673 1.5000333333333338
vertex -1.5279000000000005 2.286533333333334 5.500000000000002
vertex -1.5279000000000005 2.286533333333334 1.5000333333333338
endloop
endfacet
facet normal -0.7730776469393763 0.634311399710487 0
outer loop
vertex -2.286533333333334 1.5279000000000005 1.5000333333333338
vertex -2.286533333333334 1.5279000000000005 5.500000000000002
vertex -1.9446166666666673 1.9446166666666673 5.500000000000002
endloop
endfacet
facet normal -0.7730776469393763 0.634311399710487 0
outer loop
vertex -2.286533333333334 1.5279000000000005 1.5000333333333338
vertex -1.9446166666666673 1.9446166666666673 5.500000000000002
vertex -1.9446166666666673 1.9446166666666673 1.5000333333333338
endloop
endfacet
facet normal -0.8819950250706875 0.4712587142436281 0
outer loop
vertex -2.540633333333334 1.0523333333333336 1.5000333333333338
vertex -2.540633333333334 1.0523333333333336 5.500000000000002
vertex -2.286533333333334 1.5279000000000005 5.500000000000002
endloop
endfacet
facet normal -0.8819950250706875 0.4712587142436281 0
outer loop
vertex -2.540633333333334 1.0523333333333336 1.5000333333333338
vertex -2.286533333333334 1.5279000000000005 5.500000000000002
vertex -2.286533333333334 1.5279000000000005 1.5000333333333338
endloop
endfacet
facet normal -0.9569042033151001 0.2904037631951304 0
outer loop
vertex -2.697200000000001 0.5364333333333335 1.5000333333333338
vertex -2.697200000000001 0.5364333333333335 5.500000000000002
vertex -2.540633333333334 1.0523333333333336 5.500000000000002
endloop
endfacet
facet normal -0.9569042033151001 0.2904037631951304 0
outer loop
vertex -2.697200000000001 0.5364333333333335 1.5000333333333338
vertex -2.540633333333334 1.0523333333333336 5.500000000000002
vertex -2.540633333333334 1.0523333333333336 1.5000333333333338
endloop
endfacet
facet normal -0.995190890533067 0.09795453741405433 0
outer loop
vertex -2.750000000000001 0 1.5000333333333338
vertex -2.750000000000001 0 5.500000000000002
vertex -2.697200000000001 0.5364333333333335 5.500000000000002
endloop
endfacet
facet normal -0.995190890533067 0.09795453741405433 0
outer loop
vertex -2.750000000000001 0 1.5000333333333338
vertex -2.697200000000001 0.5364333333333335 5.500000000000002
vertex -2.697200000000001 0.5364333333333335 1.5000333333333338
endloop
endfacet
facet normal -0.995190890533067 -0.09795453741405433 0
outer loop
vertex -2.697200000000001 -0.5364333333333335 1.5000333333333338
vertex -2.697200000000001 -0.5364333333333335 5.500000000000002
vertex -2.750000000000001 0 5.500000000000002
endloop
endfacet
facet normal -0.995190890533067 -0.09795453741405433 0
outer loop
vertex -2.697200000000001 -0.5364333333333335 1.5000333333333338
vertex -2.750000000000001 0 5.500000000000002
vertex -2.750000000000001 0 1.5000333333333338
endloop
endfacet
facet normal -0.9569042033151001 -0.2904037631951304 0
outer loop
vertex -2.540633333333334 -1.0523333333333336 1.5000333333333338
vertex -2.540633333333334 -1.0523333333333336 5.500000000000002
vertex -2.697200000000001 -0.5364333333333335 5.500000000000002
endloop
endfacet
facet normal -0.9569042033151001 -0.2904037631951304 0
outer loop
vertex -2.540633333333334 -1.0523333333333336 1.5000333333333338
vertex -2.697200000000001 -0.5364333333333335 5.500000000000002
vertex -2.697200000000001 -0.5364333333333335 1.5000333333333338
endloop
endfacet
facet normal -0.8819950250706875 -0.4712587142436281 0
outer loop
vertex -2.286533333333334 -1.5279000000000005 1.5000333333333338
vertex -2.286533333333334 -1.5279000000000005 5.500000000000002
vertex -2.540633333333334 -1.0523333333333336 5.500000000000002
endloop
endfacet
facet normal -0.8819950250706875 -0.4712587142436281 0
outer loop
vertex -2.286533333333334 -1.5279000000000005 1.5000333333333338
vertex -2.540633333333334 -1.0523333333333336 5.500000000000002
vertex -2.540633333333334 -1.0523333333333336 1.5000333333333338
endloop
endfacet
facet normal -0.7730776469393763 -0.634311399710487 0
outer loop
vertex -1.9446166666666673 -1.9446166666666673 1.5000333333333338
vertex -1.9446166666666673 -1.9446166666666673 5.500000000000002
vertex -2.286533333333334 -1.5279000000000005 5.500000000000002
endloop
endfacet
facet normal -0.7730776469393763 -0.634311399710487 0
outer loop
vertex -1.9446166666666673 -1.9446166666666673 1.5000333333333338
vertex -2.286533333333334 -1.5279000000000005 5.500000000000002
vertex -2.286533333333334 -1.5279000000000005 1.5000333333333338
endloop
endfacet
facet normal -0.634311399710487 -0.7730776469393763 0
outer loop
vertex -1.5279000000000005 -2.286533333333334 1.5000333333333338
vertex -1.5279000000000005 -2.286533333333334 5.500000000000002
vertex -1.9446166666666673 -1.9446166666666673 5.500000000000002
endloop
endfacet
facet normal -0.634311399710487 -0.7730776469393763 0
outer loop
vertex -1.5279000000000005 -2.286533333333334 1.5000333333333338
vertex -1.9446166666666673 -1.9446166666666673 5.500000000000002
vertex -1.9446166666666673 -1.9446166666666673 1.5000333333333338
endloop
endfacet
facet normal -0.4712587142436281 -0.8819950250706875 0
outer loop
vertex -1.0523333333333336 -2.540633333333334 1.5000333333333338
vertex -1.0523333333333336 -2.540633333333334 5.500000000000002
vertex -1.5279000000000005 -2.286533333333334 5.500000000000002
endloop
endfacet
facet normal -0.4712587142436281 -0.8819950250706875 0
outer loop
vertex -1.0523333333333336 -2.540633333333334 1.5000333333333338
vertex -1.5279000000000005 -2.286533333333334 5.500000000000002
vertex -1.5279000000000005 -2.286533333333334 1.5000333333333338
endloop
endfacet
facet normal -0.2904037631951304 -0.9569042033151001 0
outer loop
vertex -0.5364333333333335 -2.697200000000001 1.5000333333333338
vertex -0.5364333333333335 -2.697200000000001 5.500000000000002
vertex -1.0523333333333336 -2.540633333333334 5.500000000000002
endloop
endfacet
facet normal -0.2904037631951304 -0.9569042033151001 0
outer loop
vertex -0.5364333333333335 -2.697200000000001 1.5000333333333338
vertex -1.0523333333333336 -2.540633333333334 5.500000000000002
vertex -1.0523333333333336 -2.540633333333334 1.5000333333333338
endloop
endfacet
facet normal -0.09795453741405433 -0.995190890533067 0
outer loop
vertex 0 -2.750000000000001 1.5000333333333338
vertex 0 -2.750000000000001 5.500000000000002
vertex -0.5364333333333335 -2.697200000000001 5.500000000000002
endloop
endfacet
facet normal -0.09795453741405433 -0.995190890533067 0
outer loop
vertex 0 -2.750000000000001 1.5000333333333338
vertex -0.5364333333333335 -2.697200000000001 5.500000000000002
vertex -0.5364333333333335 -2.697200000000001 1.5000333333333338
endloop
endfacet
facet normal 0.09795453741405433 -0.995190890533067 0
outer loop
vertex 0.5364333333333335 -2.697200000000001 1.5000333333333338
vertex 0.5364333333333335 -2.697200000000001 5.500000000000002
vertex 0 -2.750000000000001 5.500000000000002
endloop
endfacet
facet normal 0.09795453741405433 -0.995190890533067 0
outer loop
vertex 0.5364333333333335 -2.697200000000001 1.5000333333333338
vertex 0 -2.750000000000001 5.500000000000002
vertex 0 -2.750000000000001 1.5000333333333338
endloop
endfacet
facet normal 0.2904037631951304 -0.9569042033151001 0
outer loop
vertex 1.0523333333333336 -2.540633333333334 1.5000333333333338
vertex 1.0523333333333336 -2.540633333333334 5.500000000000002
vertex 0.5364333333333335 -2.697200000000001 5.500000000000002
endloop
endfacet
facet normal 0.2904037631951304 -0.9569042033151001 0
outer loop
vertex 1.0523333333333336 -2.540633333333334 1.5000333333333338
vertex 0.5364333333333335 -2.697200000000001 5.500000000000002
vertex 0.5364333333333335 -2.697200000000001 1.5000333333333338
endloop
endfacet
facet normal 0.4712587142436281 -0.8819950250706875 0
outer loop
vertex 1.5279000000000005 -2.286533333333334 1.5000333333333338
vertex 1.5279000000000005 -2.286533333333334 5.500000000000002
vertex 1.0523333333333336 -2.540633333333334 5.500000000000002
endloop
endfacet
facet normal 0.4712587142436281 -0.8819950250706875 0
outer loop
vertex 1.5279000000000005 -2.286533333333334 1.5000333333333338
vertex 1.0523333333333336 -2.540633333333334 5.500000000000002
vertex 1.0523333333333336 -2.540633333333334 1.5000333333333338
endloop
endfacet
facet normal 0.634311399710487 -0.7730776469393763 0
outer loop
vertex 1.9446166666666673 -1.9446166666666673 1.5000333333333338
vertex 1.9446166666666673 -1.9446166666666673 5.500000000000002
vertex 1.5279000000000005 -2.286533333333334 5.500000000000002
endloop
endfacet
facet normal 0.634311399710487 -0.7730776469393763 0
outer loop
vertex 1.9446166666666673 -1.9446166666666673 1.5000333333333338
vertex 1.5279000000000005 -2.286533333333334 5.500000000000002
vertex 1.5279000000000005 -2.286533333333334 1.5000333333333338
endloop
endfacet
facet normal 0.7730776469393763 -0.634311399710487 0
outer loop
vertex 2.286533333333334 -1.5279000000000005 1.5000333333333338
vertex 2.286533333333334 -1.5279000000000005 5.500000000000002
vertex 1.9446166666666673 -1.9446166666666673 5.500000000000002
endloop
endfacet
facet normal 0.7730776469393763 -0.634311399710487 0
outer loop
vertex 2.286533333333334 -1.5279000000000005 1.5000333333333338
vertex 1.9446166666666673 -1.9446166666666673 5.500000000000002
vertex 1.9446166666666673 -1.9446166666666673 1.5000333333333338
endloop
endfacet
facet normal 0.8819950250706875 -0.4712587142436281 0
outer loop
vertex 2.540633333333334 -1.0523333333333336 1.5000333333333338
vertex 2.540633333333334 -1.0523333333333336 5.500000000000002
vertex 2.286533333333334 -1.5279000000000005 5.500000000000002
endloop
endfacet
facet normal 0.8819950250706875 -0.4712587142436281 0
outer loop
vertex 2.540633333333334 -1.0523333333333336 1.5000333333333338
vertex 2.286533333333334 -1.5279000000000005 5.500000000000002
vertex 2.286533333333334 -1.5279000000000005 1.5000333333333338
endloop
endfacet
facet normal 0.9569042033151001 -0.2904037631951304 0
outer loop
vertex 2.697200000000001 -0.5364333333333335 1.5000333333333338
vertex 2.697200000000001 -0.5364333333333335 5.500000000000002
vertex 2.540633333333334 -1.0523333333333336 5.500000000000002
endloop
endfacet
facet normal 0.9569042033151001 -0.2904037631951304 0
outer loop
vertex 2.697200000000001 -0.5364333333333335 1.5000333333333338
vertex 2.540633333333334 -1.0523333333333336 5.500000000000002
vertex 2.540633333333334 -1.0523333333333336 1.5000333333333338
endloop
endfacet
facet normal 0.995190890533067 -0.09795453741405433 0
outer loop
vertex 2.750000000000001 0 1.5000333333333338
vertex 2.750000000000001 0 5.500000000000002
vertex 2.697200000000001 -0.5364333333333335 5.500000000000002
endloop
endfacet
facet normal 0.995190890533067 -0.09795453741405433 0
outer loop
vertex 2.750000000000001 0 1.5000333333333338
vertex 2.697200000000001 -0.5364333333333335 5.500000000000002
vertex 2.697200000000001 -0.5364333333333335 1.5000333333333338
endloop
endfacet
facet normal 0 1 0
outer loop
vertex -0.6750333333333335 -2.1499500000000005 5.500000000000002
vertex 0.6750333333333335 -2.1499500000000005 5.500000000000002
vertex 0.6750333333333335 -2.1499500000000005 1.5000333333333338
endloop
endfacet
facet normal 0 1 0
outer loop
vertex -0.6750333333333335 -2.1499500000000005 5.500000000000002
vertex 0.6750333333333335 -2.1499500000000005 1.5000333333333338
vertex -0.6750333333333335 -2.1499500000000005 1.5000333333333338
endloop
endfacet
facet normal 0 -1 0
outer loop
vertex 0.6750333333333335 2.1499500000000005 1.5000333333333338
vertex 0.6750333333333335 2.1499500000000005 5.500000000000002
vertex -0.6750333333333335 2.1499500000000005 5.500000000000002
endloop
endfacet
facet normal 0 -1 0
outer loop
vertex 0.6750333333333335 2.1499500000000005 1.5000333333333338
vertex -0.6750333333333335 2.1499500000000005 5.500000000000002
vertex -0.6750333333333335 2.1499500000000005 1.5000333333333338
endloop
endfacet
facet normal 1 0 0
outer loop
vertex -0.6750333333333335 0.6999666666666668 5.500000000000002
vertex -0.6750333333333335 0.6999666666666668 1.5000333333333338
vertex -0.6750333333333335 2.1499500000000005 1.5000333333333338
endloop
endfacet
facet normal 1 0 0
outer loop
vertex -0.6750333333333335 0.6999666666666668 5.500000000000002
vertex -0.6750333333333335 2.1499500000000005 1.5000333333333338
vertex -0.6750333333333335 2.1499500000000005 5.500000000000002
endloop
endfacet
facet normal 1 0 0
outer loop
vertex -0.6750333333333335 -2.1499500000000005 5.500000000000002
vertex -0.6750333333333335 -2.1499500000000005 1.5000333333333338
vertex -0.6750333333333335 -0.6999666666666668 1.5000333333333338
endloop
endfacet
facet normal 1 0 0
outer loop
vertex -0.6750333333333335 -2.1499500000000005 5.500000000000002
vertex -0.6750333333333335 -0.6999666666666668 1.5000333333333338
vertex -0.6750333333333335 -0.6999666666666668 5.500000000000002
endloop
endfacet
facet normal -1 0 0
outer loop
vertex 0.6750333333333335 -0.6999666666666668 5.500000000000002
vertex 0.6750333333333335 -0.6999666666666668 1.5000333333333338
vertex 0.6750333333333335 -2.1499500000000005 1.5000333333333338
endloop
endfacet
facet normal -1 0 0
outer loop
vertex 0.6750333333333335 -0.6999666666666668 5.500000000000002
vertex 0.6750333333333335 -2.1499500000000005 1.5000333333333338
vertex 0.6750333333333335 -2.1499500000000005 5.500000000000002
endloop
endfacet
facet normal -1 0 0
outer loop
vertex 0.6750333333333335 2.1499500000000005 5.500000000000002
vertex 0.6750333333333335 2.1499500000000005 1.5000333333333338
vertex 0.6750333333333335 0.6999666666666668 1.5000333333333338
endloop
endfacet
facet normal -1 0 0
outer loop
vertex 0.6750333333333335 2.1499500000000005 5.500000000000002
vertex 0.6750333333333335 0.6999666666666668 1.5000333333333338
vertex 0.6750333333333335 0.6999666666666668 5.500000000000002
endloop
endfacet
facet normal 0.9999999999999999 0 0
outer loop
vertex -2.1499500000000005 0.6999666666666668 1.5000333333333338
vertex -2.1499500000000005 0.6999666666666668 5.500000000000002
vertex -2.1499500000000005 -0.6999666666666668 5.500000000000002
endloop
endfacet
facet normal 0.9999999999999999 0 0
outer loop
vertex -2.1499500000000005 0.6999666666666668 1.5000333333333338
vertex -2.1499500000000005 -0.6999666666666668 5.500000000000002
vertex -2.1499500000000005 -0.6999666666666668 1.5000333333333338
endloop
endfacet
facet normal -0.9999999999999999 0 0
outer loop
vertex 2.1499500000000005 -0.6999666666666668 5.500000000000002
vertex 2.1499500000000005 0.6999666666666668 5.500000000000002
vertex 2.1499500000000005 0.6999666666666668 1.5000333333333338
endloop
endfacet
facet normal -0.9999999999999999 0 0
outer loop
vertex 2.1499500000000005 -0.6999666666666668 5.500000000000002
vertex 2.1499500000000005 0.6999666666666668 1.5000333333333338
vertex 2.1499500000000005 -0.6999666666666668 1.5000333333333338
endloop
endfacet
facet normal 0 1 0
outer loop
vertex -0.6750333333333335 -0.6999666666666668 5.500000000000002
vertex -0.6750333333333335 -0.6999666666666668 1.5000333333333338
vertex -2.1499500000000005 -0.6999666666666668 1.5000333333333338
endloop
endfacet
facet normal 0 1 0
outer loop
vertex -0.6750333333333335 -0.6999666666666668 5.500000000000002
vertex -2.1499500000000005 -0.6999666666666668 1.5000333333333338
vertex -2.1499500000000005 -0.6999666666666668 5.500000000000002
endloop
endfacet
facet normal 0 1 0
outer loop
vertex 2.1499500000000005 -0.6999666666666668 5.500000000000002
vertex 2.1499500000000005 -0.6999666666666668 1.5000333333333338
vertex 0.6750333333333335 -0.6999666666666668 1.5000333333333338
endloop
endfacet
facet normal 0 1 0
outer loop
vertex 2.1499500000000005 -0.6999666666666668 5.500000000000002
vertex 0.6750333333333335 -0.6999666666666668 1.5000333333333338
vertex 0.6750333333333335 -0.6999666666666668 5.500000000000002
endloop
endfacet
facet normal 0 -1 0
outer loop
vertex 0.6750333333333335 0.6999666666666668 5.500000000000002
vertex 0.6750333333333335 0.6999666666666668 1.5000333333333338
vertex 2.1499500000000005 0.6999666666666668 1.5000333333333338
endloop
endfacet
facet normal 0 -1 0
outer loop
vertex 0.6750333333333335 0.6999666666666668 5.500000000000002
vertex 2.1499500000000005 0.6999666666666668 1.5000333333333338
vertex 2.1499500000000005 0.6999666666666668 5.500000000000002
endloop
endfacet
facet normal 0 -1 0
outer loop
vertex -2.1499500000000005 0.6999666666666668 5.500000000000002
vertex -2.1499500000000005 0.6999666666666668 1.5000333333333338
vertex -0.6750333333333335 0.6999666666666668 1.5000333333333338
endloop
endfacet
facet normal 0 -1 0
outer loop
vertex -2.1499500000000005 0.6999666666666668 5.500000000000002
vertex -0.6750333333333335 0.6999666666666668 1.5000333333333338
vertex -0.6750333333333335 0.6999666666666668 5.500000000000002
endloop
endfacet
facet normal 0 0 1
outer loop
vertex 0 2.399833333333334 5.500000000000002
vertex -0.5364333333333335 2.697200000000001 5.500000000000002
vertex -1.0523333333333336 2.540633333333334 5.500000000000002
endloop
endfacet
facet normal 0 0 0.9999999999999999
outer loop
vertex 0 2.399833333333334 5.500000000000002
vertex -1.0523333333333336 2.540633333333334 5.500000000000002
vertex -1.5279000000000005 2.286533333333334 5.500000000000002
endloop
endfacet
facet normal 0 0 1
outer loop
vertex 0 2.399833333333334 5.500000000000002
vertex -1.5279000000000005 2.286533333333334 5.500000000000002
vertex -1.6941833333333338 2.1499500000000005 5.500000000000002
endloop
endfacet
facet normal 0 0 1
outer loop
vertex 0 2.399833333333334 5.500000000000002
vertex -1.6941833333333338 2.1499500000000005 5.500000000000002
vertex -0.6750333333333335 2.1499500000000005 5.500000000000002
endloop
endfacet
facet normal 0 0 0.9999999999999999
outer loop
vertex 0 2.399833333333334 5.500000000000002
vertex -0.6750333333333335 2.1499500000000005 5.500000000000002
vertex 0.6750333333333335 2.1499500000000005 5.500000000000002
endloop
endfacet
facet normal 0 0 1
outer loop
vertex 0 2.399833333333334 5.500000000000002
vertex 0.6750333333333335 2.1499500000000005 5.500000000000002
vertex 1.6941833333333338 2.1499500000000005 5.500000000000002
endloop
endfacet
facet normal 0 0 1
outer loop
vertex 0 2.399833333333334 5.500000000000002
vertex 1.6941833333333338 2.1499500000000005 5.500000000000002
vertex 1.5279000000000005 2.286533333333334 5.500000000000002
endloop
endfacet
facet normal 0 0 0.9999999999999999
outer loop
vertex 0 2.399833333333334 5.500000000000002
vertex 1.5279000000000005 2.286533333333334 5.500000000000002
vertex 1.0523333333333336 2.540633333333334 5.500000000000002
endloop
endfacet
facet normal 0 0 1
outer loop
vertex 0 2.399833333333334 5.500000000000002
vertex 1.0523333333333336 2.540633333333334 5.500000000000002
vertex 0.5364333333333335 2.697200000000001 5.500000000000002
endloop
endfacet
facet normal 0 0 1
outer loop
vertex 0 2.399833333333334 5.500000000000002
vertex 0.5364333333333335 2.697200000000001 5.500000000000002
vertex 0 2.750000000000001 5.500000000000002
endloop
endfacet
facet normal 0 0 1
outer loop
vertex 0 2.399833333333334 5.500000000000002
vertex 0 2.750000000000001 5.500000000000002
vertex -0.5364333333333335 2.697200000000001 5.500000000000002
endloop
endfacet
facet normal 0 0 1
outer loop
vertex 1.826733333333334 1.3656500000000005 5.500000000000002
vertex 0.6750333333333335 2.1499500000000005 5.500000000000002
vertex 0.6750333333333335 0.6999666666666668 5.500000000000002
endloop
endfacet
facet normal 0 0 1
outer loop
vertex 1.826733333333334 1.3656500000000005 5.500000000000002
vertex 0.6750333333333335 0.6999666666666668 5.500000000000002
vertex 2.1499500000000005 0.6999666666666668 5.500000000000002
endloop
endfacet
facet normal 0 0 1
outer loop
vertex 1.826733333333334 1.3656500000000005 5.500000000000002
vertex 2.1499500000000005 0.6999666666666668 5.500000000000002
vertex 2.6475166666666676 0.6999666666666668 5.500000000000002
endloop
endfacet
facet normal 0 0 1
outer loop
vertex 1.826733333333334 1.3656500000000005 5.500000000000002
vertex 2.6475166666666676 0.6999666666666668 5.500000000000002
vertex 2.540633333333334 1.0523333333333336 5.500000000000002
endloop
endfacet
facet normal 0 0 1
outer loop
vertex 1.826733333333334 1.3656500000000005 5.500000000000002
vertex 2.540633333333334 1.0523333333333336 5.500000000000002
vertex 2.286533333333334 1.5279000000000005 5.500000000000002
endloop
endfacet
facet normal 0 0 1
outer loop
vertex 1.826733333333334 1.3656500000000005 5.500000000000002
vertex 2.286533333333334 1.5279000000000005 5.500000000000002
vertex 1.9446166666666673 1.9446166666666673 5.500000000000002
endloop
endfacet
facet normal 0 0 1
outer loop
vertex 1.826733333333334 1.3656500000000005 5.500000000000002
vertex 1.9446166666666673 1.9446166666666673 5.500000000000002
vertex 1.6941833333333338 2.1499500000000005 5.500000000000002
endloop
endfacet
facet normal 0 0 1
outer loop
vertex 1.826733333333334 1.3656500000000005 5.500000000000002
vertex 1.6941833333333338 2.1499500000000005 5.500000000000002
vertex 0.6750333333333335 2.1499500000000005 5.500000000000002
endloop
endfacet
facet normal 0 0 1
outer loop
vertex -1.826733333333334 1.3656500000000005 5.500000000000002
vertex -1.6941833333333338 2.1499500000000005 5.500000000000002
vertex -1.9446166666666673 1.9446166666666673 5.500000000000002
endloop
endfacet
facet normal 0 0 1
outer loop
vertex -1.826733333333334 1.3656500000000005 5.500000000000002
vertex -1.9446166666666673 1.9446166666666673 5.500000000000002
vertex -2.286533333333334 1.5279000000000005 5.500000000000002
endloop
endfacet
facet normal 0 0 1
outer loop
vertex -1.826733333333334 1.3656500000000005 5.500000000000002
vertex -2.286533333333334 1.5279000000000005 5.500000000000002
vertex -2.540633333333334 1.0523333333333336 5.500000000000002
endloop
endfacet
facet normal 0 0 1
outer loop
vertex -1.826733333333334 1.3656500000000005 5.500000000000002
vertex -2.540633333333334 1.0523333333333336 5.500000000000002
vertex -2.6475166666666676 0.6999666666666668 5.500000000000002
endloop
endfacet
facet normal 0 0 1
outer loop
vertex -1.826733333333334 1.3656500000000005 5.500000000000002
vertex -2.6475166666666676 0.6999666666666668 5.500000000000002
vertex -2.1499500000000005 0.6999666666666668 5.500000000000002
endloop
endfacet
facet normal 0 0 1
outer loop
vertex -1.826733333333334 1.3656500000000005 5.500000000000002
vertex -2.1499500000000005 0.6999666666666668 5.500000000000002
vertex -0.6750333333333335 0.6999666666666668 5.500000000000002
endloop
endfacet
facet normal 0 0 1
outer loop
vertex -1.826733333333334 1.3656500000000005 5.500000000000002
vertex -0.6750333333333335 0.6999666666666668 5.500000000000002
vertex -0.6750333333333335 2.1499500000000005 5.500000000000002
endloop
endfacet
facet normal 0 0 1
outer loop
vertex -1.826733333333334 1.3656500000000005 5.500000000000002
vertex -0.6750333333333335 2.1499500000000005 5.500000000000002
vertex -1.6941833333333338 2.1499500000000005 5.500000000000002
endloop
endfacet
facet normal 0 0 1
outer loop
vertex 2.5342166666666675 0 5.500000000000002
vertex 2.1499500000000005 0.6999666666666668 5.500000000000002
vertex 2.1499500000000005 -0.6999666666666668 5.500000000000002
endloop
endfacet
facet normal 0 0 1
outer loop
vertex 2.5342166666666675 0 5.500000000000002
vertex 2.1499500000000005 -0.6999666666666668 5.500000000000002
vertex 2.6475166666666676 -0.6999666666666668 5.500000000000002
endloop
endfacet
facet normal 0 0 0.9999999999999999
outer loop
vertex 2.5342166666666675 0 5.500000000000002
vertex 2.6475166666666676 -0.6999666666666668 5.500000000000002
vertex 2.697200000000001 -0.5364333333333335 5.500000000000002
endloop
endfacet
facet normal 0 0 1
outer loop
vertex 2.5342166666666675 0 5.500000000000002
vertex 2.697200000000001 -0.5364333333333335 5.500000000000002
vertex 2.750000000000001 0 5.500000000000002
endloop
endfacet
facet normal 0 0 1
outer loop
vertex 2.5342166666666675 0 5.500000000000002
vertex 2.750000000000001 0 5.500000000000002
vertex 2.697200000000001 0.5364333333333335 5.500000000000002
endloop
endfacet
facet normal 0 0 0.9999999999999999
outer loop
vertex 2.5342166666666675 0 5.500000000000002
vertex 2.697200000000001 0.5364333333333335 5.500000000000002
vertex 2.6475166666666676 0.6999666666666668 5.500000000000002
endloop
endfacet
facet normal 0 0 1
outer loop
vertex 2.5342166666666675 0 5.500000000000002
vertex 2.6475166666666676 0.6999666666666668 5.500000000000002
vertex 2.1499500000000005 0.6999666666666668 5.500000000000002
endloop
endfacet
facet normal 0 0 0.9999999999999999
outer loop
vertex -2.5342166666666675 0 5.500000000000002
vertex -2.6475166666666676 0.6999666666666668 5.500000000000002
vertex -2.697200000000001 0.5364333333333335 5.500000000000002
endloop
endfacet
facet normal 0 0 1
outer loop
vertex -2.5342166666666675 0 5.500000000000002
vertex -2.697200000000001 0.5364333333333335 5.500000000000002
vertex -2.750000000000001 0 5.500000000000002
endloop
endfacet
facet normal 0 0 1
outer loop
vertex -2.5342166666666675 0 5.500000000000002
vertex -2.750000000000001 0 5.500000000000002
vertex -2.697200000000001 -0.5364333333333335 5.500000000000002
endloop
endfacet
facet normal 0 0 0.9999999999999999
outer loop
vertex -2.5342166666666675 0 5.500000000000002
vertex -2.697200000000001 -0.5364333333333335 5.500000000000002
vertex -2.6475166666666676 -0.6999666666666668 5.500000000000002
endloop
endfacet
facet normal 0 0 1
outer loop
vertex -2.5342166666666675 0 5.500000000000002
vertex -2.6475166666666676 -0.6999666666666668 5.500000000000002
vertex -2.1499500000000005 -0.6999666666666668 5.500000000000002
endloop
endfacet
facet normal 0 0 1
outer loop
vertex -2.5342166666666675 0 5.500000000000002
vertex -2.1499500000000005 -0.6999666666666668 5.500000000000002
vertex -2.1499500000000005 0.6999666666666668 5.500000000000002
endloop
endfacet
facet normal 0 0 1
outer loop
vertex -2.5342166666666675 0 5.500000000000002
vertex -2.1499500000000005 0.6999666666666668 5.500000000000002
vertex -2.6475166666666676 0.6999666666666668 5.500000000000002
endloop
endfacet
facet normal 0 0 1
outer loop
vertex 1.826733333333334 -1.3656500000000005 5.500000000000002
vertex 2.1499500000000005 -0.6999666666666668 5.500000000000002
vertex 0.6750333333333335 -0.6999666666666668 5.500000000000002
endloop
endfacet
facet normal 0 0 1
outer loop
vertex 1.826733333333334 -1.3656500000000005 5.500000000000002
vertex 0.6750333333333335 -0.6999666666666668 5.500000000000002
vertex 0.6750333333333335 -2.1499500000000005 5.500000000000002
endloop
endfacet
facet normal 0 0 1
outer loop
vertex 1.826733333333334 -1.3656500000000005 5.500000000000002
vertex 0.6750333333333335 -2.1499500000000005 5.500000000000002
vertex 1.6941833333333338 -2.1499500000000005 5.500000000000002
endloop
endfacet
facet normal 0 0 1
outer loop
vertex 1.826733333333334 -1.3656500000000005 5.500000000000002
vertex 1.6941833333333338 -2.1499500000000005 5.500000000000002
vertex 1.9446166666666673 -1.9446166666666673 5.500000000000002
endloop
endfacet
facet normal 0 0 1
outer loop
vertex 1.826733333333334 -1.3656500000000005 5.500000000000002
vertex 1.9446166666666673 -1.9446166666666673 5.500000000000002
vertex 2.286533333333334 -1.5279000000000005 5.500000000000002
endloop
endfacet
facet normal 0 0 1
outer loop
vertex 1.826733333333334 -1.3656500000000005 5.500000000000002
vertex 2.286533333333334 -1.5279000000000005 5.500000000000002
vertex 2.540633333333334 -1.0523333333333336 5.500000000000002
endloop
endfacet
facet normal 0 0 1
outer loop
vertex 1.826733333333334 -1.3656500000000005 5.500000000000002
vertex 2.540633333333334 -1.0523333333333336 5.500000000000002
vertex 2.6475166666666676 -0.6999666666666668 5.500000000000002
endloop
endfacet
facet normal 0 0 1
outer loop
vertex 1.826733333333334 -1.3656500000000005 5.500000000000002
vertex 2.6475166666666676 -0.6999666666666668 5.500000000000002
vertex 2.1499500000000005 -0.6999666666666668 5.500000000000002
endloop
endfacet
facet normal 0 0 1
outer loop
vertex -1.826733333333334 -1.3656500000000005 5.500000000000002
vertex -2.1499500000000005 -0.6999666666666668 5.500000000000002
vertex -2.6475166666666676 -0.6999666666666668 5.500000000000002
endloop
endfacet
facet normal 0 0 1
outer loop
vertex -1.826733333333334 -1.3656500000000005 5.500000000000002
vertex -2.6475166666666676 -0.6999666666666668 5.500000000000002
vertex -2.540633333333334 -1.0523333333333336 5.500000000000002
endloop
endfacet
facet normal 0 0 1
outer loop
vertex -1.826733333333334 -1.3656500000000005 5.500000000000002
vertex -2.540633333333334 -1.0523333333333336 5.500000000000002
vertex -2.286533333333334 -1.5279000000000005 5.500000000000002
endloop
endfacet
facet normal 0 0 1
outer loop
vertex -1.826733333333334 -1.3656500000000005 5.500000000000002
vertex -2.286533333333334 -1.5279000000000005 5.500000000000002
vertex -1.9446166666666673 -1.9446166666666673 5.500000000000002
endloop
endfacet
facet normal 0 0 1
outer loop
vertex -1.826733333333334 -1.3656500000000005 5.500000000000002
vertex -1.9446166666666673 -1.9446166666666673 5.500000000000002
vertex -1.6941833333333338 -2.1499500000000005 5.500000000000002
endloop
endfacet
facet normal 0 0 1
outer loop
vertex -1.826733333333334 -1.3656500000000005 5.500000000000002
vertex -1.6941833333333338 -2.1499500000000005 5.500000000000002
vertex -0.6750333333333335 -2.1499500000000005 5.500000000000002
endloop
endfacet
facet normal 0 0 1
outer loop
vertex -1.826733333333334 -1.3656500000000005 5.500000000000002
vertex -0.6750333333333335 -2.1499500000000005 5.500000000000002
vertex -0.6750333333333335 -0.6999666666666668 5.500000000000002
endloop
endfacet
facet normal 0 0 1
outer loop
vertex -1.826733333333334 -1.3656500000000005 5.500000000000002
vertex -0.6750333333333335 -0.6999666666666668 5.500000000000002
vertex -2.1499500000000005 -0.6999666666666668 5.500000000000002
endloop
endfacet
facet normal 0 0 0.9999999999999999
outer loop
vertex 0 -2.399833333333334 5.500000000000002
vertex 0.6750333333333335 -2.1499500000000005 5.500000000000002
vertex -0.6750333333333335 -2.1499500000000005 5.500000000000002
endloop
endfacet
facet normal 0 0 1
outer loop
vertex 0 -2.399833333333334 5.500000000000002
vertex -0.6750333333333335 -2.1499500000000005 5.500000000000002
vertex -1.6941833333333338 -2.1499500000000005 5.500000000000002
endloop
endfacet
facet normal 0 0 1
outer loop
vertex 0 -2.399833333333334 5.500000000000002
vertex -1.6941833333333338 -2.1499500000000005 5.500000000000002
vertex -1.5279000000000005 -2.286533333333334 5.500000000000002
endloop
endfacet
facet normal 0 0 0.9999999999999999
outer loop
vertex 0 -2.399833333333334 5.500000000000002
vertex -1.5279000000000005 -2.286533333333334 5.500000000000002
vertex -1.0523333333333336 -2.540633333333334 5.500000000000002
endloop
endfacet
facet normal 0 0 1
outer loop
vertex 0 -2.399833333333334 5.500000000000002
vertex -1.0523333333333336 -2.540633333333334 5.500000000000002
vertex -0.5364333333333335 -2.697200000000001 5.500000000000002
endloop
endfacet
facet normal 0 0 1
outer loop
vertex 0 -2.399833333333334 5.500000000000002
vertex -0.5364333333333335 -2.697200000000001 5.500000000000002
vertex 0 -2.750000000000001 5.500000000000002
endloop
endfacet
facet normal 0 0 1
outer loop
vertex 0 -2.399833333333334 5.500000000000002
vertex 0 -2.750000000000001 5.500000000000002
vertex 0.5364333333333335 -2.697200000000001 5.500000000000002
endloop
endfacet
facet normal 0 0 1
outer loop
vertex 0 -2.399833333333334 5.500000000000002
vertex 0.5364333333333335 -2.697200000000001 5.500000000000002
vertex 1.0523333333333336 -2.540633333333334 5.500000000000002
endloop
endfacet
facet normal 0 0 0.9999999999999999
outer loop
vertex 0 -2.399833333333334 5.500000000000002
vertex 1.0523333333333336 -2.540633333333334 5.500000000000002
vertex 1.5279000000000005 -2.286533333333334 5.500000000000002
endloop
endfacet
facet normal 0 0 1
outer loop
vertex 0 -2.399833333333334 5.500000000000002
vertex 1.5279000000000005 -2.286533333333334 5.500000000000002
vertex 1.6941833333333338 -2.1499500000000005 5.500000000000002
endloop
endfacet
facet normal 0 0 1
outer loop
vertex 0 -2.399833333333334 5.500000000000002
vertex 1.6941833333333338 -2.1499500000000005 5.500000000000002
vertex 0.6750333333333335 -2.1499500000000005 5.500000000000002
endloop
endfacet
endsolid JSCAD
